<?xml version="1.0" standalone="no"?>
<!DOCTYPE svg PUBLIC "-//W3C//DTD SVG 1.1//EN" "http://www.w3.org/Graphics/SVG/1.1/DTD/svg11.dtd" >
<!--
2013-9-30: Created.
-->
<svg>
<metadata>
Created by iconfont
</metadata>
<defs>

<font id="iconfont" horiz-adv-x="1024" >
  <font-face
    font-family="iconfont"
    font-weight="500"
    font-stretch="normal"
    units-per-em="1024"
    ascent="896"
    descent="-128"
  />
    <missing-glyph />
    
    <glyph glyph-name="x" unicode="x" horiz-adv-x="1001"
d="M281 543q-27 -1 -53 -1h-83q-18 0 -36.5 -6t-32.5 -18.5t-23 -32t-9 -45.5v-76h912v41q0 16 -0.5 30t-0.5 18q0 13 -5 29t-17 29.5t-31.5 22.5t-49.5 9h-133v-97h-438v97zM955 310v-52q0 -23 0.5 -52t0.5 -58t-10.5 -47.5t-26 -30t-33 -16t-31.5 -4.5q-14 -1 -29.5 -0.5
t-29.5 0.5h-32l-45 128h-439l-44 -128h-29h-34q-20 0 -45 1q-25 0 -41 9.5t-25.5 23t-13.5 29.5t-4 30v167h911zM163 247q-12 0 -21 -8.5t-9 -21.5t9 -21.5t21 -8.5q13 0 22 8.5t9 21.5t-9 21.5t-22 8.5zM316 123q-8 -26 -14 -48q-5 -19 -10.5 -37t-7.5 -25t-3 -15t1 -14.5
t9.5 -10.5t21.5 -4h37h67h81h80h64h36q23 0 34 12t2 38q-5 13 -9.5 30.5t-9.5 34.5q-5 19 -11 39h-368zM336 498v228q0 11 2.5 23t10 21.5t20.5 15.5t34 6h188q31 0 51.5 -14.5t20.5 -52.5v-227h-327z" />
    

    
    <glyph glyph-name="delete-a" unicode="&#46593;" d="M344.459 104.618c15.423 0 27.902 12.48 27.902 27.902v306.921c0 15.423-12.479 27.902-27.902 27.902s-27.902-12.481-27.902-27.902v-306.922c0-15.423 12.48-27.901 27.902-27.901zM511.872 104.618c15.424 0 27.902 12.48 27.902 27.902v306.921c0 15.423-12.48 27.902-27.902 27.902s-27.902-12.481-27.902-27.902v-306.922c-0.001-15.423 12.478-27.901 27.902-27.901zM679.284 104.618c15.423 0 27.902 12.48 27.902 27.902v306.921c0 15.423-12.48 27.902-27.902 27.902s-27.902-12.481-27.902-27.902v-306.922c0-15.423 12.479-27.901 27.902-27.901zM818.793 746.364h-115.559c-12.48 48.011-55.804 83.706-107.657 83.706h-167.412c-51.853 0-95.178-35.695-107.657-83.706h-115.558c-61.553 0-111.608-50.083-111.608-111.608v-27.903h27.902v-27.902h55.804v-530.138c0-61.526 50.055-111.608 111.608-111.608h446.432c61.555 0 111.608 50.082 111.608 111.608v530.139h55.804v27.902h27.902v27.903c0 61.525-50.053 111.607-111.608 111.607zM428.165 774.266h167.412c20.544 0 38.365-11.308 48.039-27.902h-263.488c9.674 16.594 27.493 27.902 48.038 27.902zM790.891 48.814c0-30.79-25.040-55.804-55.804-55.804h-446.432c-30.763 0-59.673 25.014-59.673 55.804l3.869 530.138h558.040v-530.138zM149.145 634.756c0 30.79 25.042 55.804 55.804 55.804h613.845c30.765 0 55.804-25.014 55.804-55.804h-725.453z"  horiz-adv-x="1024" />

    
    <glyph glyph-name="point-a" unicode="&#46592;" d="M314.68700000000007 581.0339999999999h391.17199999999997v-390.30799999999994h-391.17199999999997v390.30799999999994z"  horiz-adv-x="1024" />

    
    <glyph glyph-name="search-b" unicode="&#46621;" d="M459.026 109.248c-182.708 0-331.351 148.643-331.351 331.345 0 182.701 148.643 331.344 331.351 331.344s331.359-148.643 331.359-331.344c0-182.701-148.65-331.345-331.359-331.345M459.026 690.38c-137.738 0-249.793-112.055-249.793-249.787 0-137.734 112.054-249.788 249.793-249.788s249.797 112.055 249.797 249.788c0 137.732-112.059 249.787-249.797 249.787zM846.035 3.413c-12.849 0-25.689 4.901-35.493 14.698l-173.114 173.101c-19.599 19.599-19.599 51.38 0 70.983 19.607 19.594 51.381 19.594 70.986 0l173.111-173.101c19.6-19.599 19.6-51.38 0-70.983-9.804-9.797-22.644-14.698-35.493-14.698z"  horiz-adv-x="1024" />

    
    <glyph glyph-name="arrow-down-a" unicode="&#46637;" d="M921.516 604.136c-13.737 13.562-35.837 13.492-49.435-0.213l-358.217-361.483-363.215 359.947c-13.738 13.598-35.837 13.498-49.474-0.207-13.605-13.745-13.497-35.874 0.208-49.478l386.045-382.535c0.598-0.591 1.366-0.732 1.958-1.291 0.144-0.138 0.176-0.314 0.315-0.455 6.818-6.747 15.739-10.141 24.617-10.141 8.984 0 18.007 3.462 24.824 10.35l382.551 386.030c13.637 13.743 13.53 35.873-0.176 49.477v0zM921.516 604.136z"  horiz-adv-x="1024" />

    
    <glyph glyph-name="urge-c" unicode="&#46860;" d="M230.75 834l84.375 0 0-56.25-84.375 0 0 56.25ZM568.25 834l84.375 0 0-56.25-84.375 0 0 56.25ZM230.75 749.625l84.375 0 0-56.25-84.375 0 0 56.25ZM568.25 749.625l84.375 0 0-56.25-84.375 0 0 56.25ZM603.828125-66L177.67812499999997-66C113.91874999999999-66 62-14.081249999999955 62 49.70625000000007L62 662.04375C62 725.859375 113.91874999999999 777.75 177.67812499999997 777.75L673.15625 777.75c63.787499999999994 0 115.67812500000001-51.890625 115.67812500000001-115.70625l0-261.028125c0-7.734375-6.3-14.0625-14.0625-14.0625s-14.0625 6.328125-14.0625 14.0625L760.7093749999999 662.04375C760.7375000000001 710.3343749999999 721.446875 749.625 673.15625 749.625L177.67812499999997 749.625C129.3875 749.625 90.125 710.3343749999999 90.125 662.04375l0-612.3375C90.125 1.3875000000000455 129.3875-37.875 177.67812499999997-37.875l426.121875 0c7.762500000000001 0 14.0625-6.3 14.0625-14.0625S611.590625-66 603.828125-66zM456.93125 507.91875L255.246875 507.91875c-7.762500000000001 0-14.0625 6.328125-14.0625 14.0625 0 7.790625 6.3 14.0625 14.0625 14.0625l201.684375 0c7.762500000000001 0 14.0625-6.2718750000000005 14.0625-14.0625C470.99375 514.246875 464.69374999999997 507.91875 456.93125 507.91875zM456.93125 417.35625L255.246875 417.35625c-7.762500000000001 0-14.0625 6.3-14.0625 14.0625s6.3 14.0625 14.0625 14.0625l201.684375 0c7.762500000000001 0 14.0625-6.3 14.0625-14.0625S464.69374999999997 417.35625 456.93125 417.35625zM748.953125-66c-117.47812499999999 0-213.01875 95.54062499999999-213.01875 213.01875 0 117.45 95.54062499999999 212.990625 213.01875 212.990625S962 275.18437500000005 962 157.70624999999995 866.43125-66 748.953125-66zM748.953125 331.884375c-101.953125 0-184.89375-82.9125-184.89375-184.865625S647-37.875 748.953125-37.875C850.934375-37.875 933.875 45.065624999999955 933.875 147.01874999999995S850.934375 331.884375 748.953125 331.884375zM748.953125 106.40625c-22.359375 0-40.55625 18.196875-40.55625 40.6125 0 22.359375 18.196875 40.55625 40.55625 40.55625 22.415625 0 40.640625-18.196875 40.640625-40.55625C789.59375 124.60312500000009 771.3687500000001 106.40625 748.953125 106.40625zM748.953125 159.47812499999998c-6.862500000000001 0-12.43125-5.5687500000000005-12.43125-12.43125 0-6.890625 5.5687500000000005-12.4875 12.43125-12.4875 6.890625 0 12.515625 5.596875000000001 12.515625 12.4875C761.46875 153.88125000000014 755.84375 159.47812499999998 748.953125 159.47812499999998zM748.953125 167.2406249999999c-7.762500000000001 0-14.0625 6.2718750000000005-14.0625 14.0625l0 105.01875c0 7.790625 6.3 14.0625 14.0625 14.0625s14.0625-6.2718750000000005 14.0625-14.0625l0-105.01875C763.015625 173.51250000000005 756.715625 167.2406249999999 748.953125 167.2406249999999zM885.471875 132.95624999999995l-105.046875 0c-7.762500000000001 0-14.0625 6.2718750000000005-14.0625 14.0625 0 7.734375 6.3 14.0625 14.0625 14.0625l105.046875 0c7.762500000000001 0 14.0625-6.328125 14.0625-14.0625C899.534375 139.2281250000001 893.2625 132.95624999999995 885.471875 132.95624999999995z"  horiz-adv-x="1024" />

    
    <glyph glyph-name="refresh-a" unicode="&#46668;" d="M943.561 258.43600000000004l-51.671 14.652c44.408 208.903-80.271 419.335-288.758 478.469-114.493 32.474-231.425 12.834-325.5-44.771l0.016-0.028c-0.017-0.01-0.034-0.019-0.051-0.029-15.124-9.142-19.973-28.814-10.83-43.938 8.768-14.503 27.213-19.549 42.049-11.878 0 0 10.427 6.206 14.361 8.402 39.187 21.868 81.515 35.751 125.809 41.261 45.823 5.701 91.809 2.138 136.682-10.589 44.873-12.728 85.882-33.84 121.888-62.75 34.806-27.945 63.541-61.984 85.411-101.171 21.869-39.186 35.751-81.515 41.262-125.809 4.561-36.667 3.174-73.438-4.077-109.662l-51.507 14.606c-12.287 3.484-25.291-3.592-28.557-15.939-3.15-11.912 5.557-23.486 5.557-23.486l51.03-91.43c4.379-7.846 11.573-13.125 19.614-15.294 7.983-2.375 16.878-1.658 24.724 2.721l91.428 51.032c0 0 13.487 5.28 17.059 17.074C963.201 242.10199999999998 955.848 254.95100000000002 943.561 258.43600000000004zM80.44 508.525l51.67-14.652c-44.408-208.903 80.27-419.335 288.758-478.47 114.493-32.474 231.424-12.834 325.501 44.771l-0.017 0.028c0.017 0.011 0.033 0.019 0.051 0.029 15.124 9.142 19.974 28.813 10.829 43.938-8.767 14.503-27.213 19.549-42.048 11.878 0 0-10.428-6.206-14.361-8.401-39.187-21.868-81.516-35.751-125.811-41.261-45.822-5.701-91.808-2.139-136.68 10.589-44.873 12.729-85.883 33.84-121.889 62.75-34.805 27.945-63.541 61.984-85.41 101.171-21.869 39.186-35.751 81.515-41.262 125.809-4.561 36.667-3.174 73.438 4.077 109.662l51.507-14.606c12.287-3.484 25.291 3.592 28.557 15.939 3.151 11.913-5.557 23.487-5.557 23.487l-51.03 91.43c-4.379 7.846-11.573 13.125-19.615 15.293-7.983 2.375-16.877 1.659-24.723-2.721l-91.428-51.032c0 0-13.488-5.28-17.059-17.074C60.8 524.858 68.153 512.009 80.44 508.525z"  horiz-adv-x="1024" />

    
    <glyph glyph-name="pen-a" unicode="&#46664;" d="M801.82 602.589l-134.288 134.283 67.172 67.143c22.257 22.227 58.295 22.227 80.551 0l53.709-53.708c22.257-22.256 22.257-58.35 0-80.605l-67.143-67.114zM411.697 212.482l-134.289 134.283 365.071 362.203 134.287-134.284-365.069-362.202zM169.526 102.357l81.705 218.234 133.164-133.189-214.868-85.044zM772.586 56.463c18.797 0 34.018-15.221 34.018-34.018 0-18.768-15.221-33.989-34.018-33.989h-601.473c-18.768 0-33.99 15.22-33.99 33.989 0 18.797 15.222 34.018 33.99 34.018h601.473z"  horiz-adv-x="1024" />

    
    <glyph glyph-name="warn-a" unicode="&#46669;" d="M512.0600002929687-57.22968720703136C268.19375029296873-57.22968720703136 70.48343779296874 140.4928122070313 70.48343779296874 384.37312470703125 70.48343779296874 628.2421872070313 268.19375029296873 825.9496872070313 512.0600002929687 825.9496872070313 755.9178127929688 825.9496872070313 953.5896872070313 628.2421872070313 953.5896872070313 384.37312470703125 953.5896872070313 140.4928122070313 755.9178127929688-57.22968720703136 512.0600002929687-57.22968720703136L512.0600002929687-57.22968720703136 512.0600002929687-57.22968720703136zM512.0600002929687 785.8012497070313c-221.69718720703122 0-401.428125-179.73093779296875-401.428125-401.428125 0-221.72249970703126 179.73093779296875-401.45437529296873 401.428125-401.45437529296873 221.69999970703125 0 401.43093749999997 179.73187470703127 401.43093749999997 401.45437529296873C913.4909377929687 606.0703127929687 733.76 785.8012497070313 512.0600002929687 785.8012497070313L512.0600002929687 785.8012497070313 512.0600002929687 785.8012497070313zM431.76687470703126 163.5853127929688l40.145625 0L471.91249970703126 464.6428125l-40.145625 0 0 20.073750292968747L552.2084377929688 484.7165627929688l0-321.13218779296875 40.12499970703126 0 0-20.073750292968747L431.76687470703126 143.51062470703118 431.76687470703126 163.5853127929688 431.76687470703126 163.5853127929688zM512.0600002929687 544.9396875c-33.248437207031245 0-60.21937529296875 22.47000029296875-60.21937529296875 50.18437529296875 0 27.715312792968753 26.97093720703125 50.18531220703125 60.21937529296875 50.18531220703125 33.25031279296876 0 60.198750000000004-22.47093720703125 60.198750000000004-50.18531220703125C572.2596872070313 567.4096877929687 545.3103122070312 544.9396875 512.0600002929687 544.9396875L512.0600002929687 544.9396875 512.0600002929687 544.9396875zM512.0600002929687 544.9396875"  horiz-adv-x="1024" />

    
    <glyph glyph-name="calendar" unicode="&#45321;" d="M847.82 739.14h-35.04v-170.22c0-36.18-29.34-65.58-65.58-65.58-36.18 0-65.52 29.4-65.52 65.58v170.22h-338.4v-169.8c0-36.24-29.4-65.64-65.64-65.64-36.18 0-65.52 29.4-65.52 65.64v169.8h-36c-46.5 0-84.12-37.68-84.12-84.12v-184.2h840v184.2c0 46.44-37.62 84.12-84.18 84.12zM327.62 587.28c0-27.78-22.56-50.22-50.22-50.22v0c-27.78 0-50.22 22.44-50.22 50.22v165.6c0 27.78 22.5 50.22 50.22 50.22v0c27.66 0 50.22-22.44 50.22-50.22v-165.6zM798.8 587.28c0-27.78-22.44-50.22-50.28-50.22v0c-27.78 0-50.22 22.44-50.22 50.22v165.6c0 27.78 22.44 50.22 50.22 50.22v0c27.84 0 50.28-22.44 50.28-50.22v-165.6zM882.92 436.02v-336.48c0-46.44-37.62-84.06-84.06-84.06h-574.38c-46.44 0-84.06 37.62-84.06 84.06v336.48h-48.42v-387c0-46.44 37.62-84.18 84.18-84.18h671.58c46.56 0 84.18 37.74 84.18 84.18v387h-49.02zM535.58 192.12h66.06c6.54-30.24 23.34-38.94 39.72-38.94 24.3 0 39.06 15.72 39.06 43.38 0 15.6-5.82 37.56-39.06 38.4h-21.06v41.4h9.54c33.24 0.84 41.22 14.46 41.22 39.6 0 16.26-12.06 28.08-31.56 28.62-25.56 0.66-29.46-11.1-35.88-26.58l-61.86-0.12c14.34 47.58 47.58 71.76 99.66 72.6 63.12-1.68 95.82-27.18 98.1-76.44 0-24.18-13.92-42.48-41.52-54.54 35.34-12.12 53.1-33.78 53.1-64.8-2.22-51.9-38.76-79.14-109.62-81.72-59.88-0.06-95.94 28.98-105.9 79.14zM489.98 175.26v-58.5h-212.58v37.74c23.16 36.3 46.26 63.54 89.52 91.2 39.78 25.98 53.64 45.78 53.64 64.8 0 4.2 0.18 25.98-31.86 25.98-22.32-0.84-38.7-10.92-38.7-33.9l-67.68-0.42c3.9 65.22 57 88.38 111.36 88.38 61.92-2.58 95.16-28.92 99.6-79.02 2.22-33.78-16.8-66.06-68.88-98.04-28.8-17.22-31.38-19.14-49.02-38.16h114.6z"  horiz-adv-x="1024" />

    
    <glyph glyph-name="search-a" unicode="&#46622;" d="M846.615 441.692c0 216.666-175.643 392.308-392.308 392.308s-392.308-175.642-392.308-392.308c0-216.666 175.642-392.308 392.308-392.308 216.666 0 392.308 175.643 392.308 392.308zM108.154 441.692c0 191.175 154.978 346.154 346.154 346.154s346.154-154.978 346.154-346.154c0-191.175-154.978-346.154-346.154-346.154-191.175 0-346.154 154.978-346.154 346.154zM922.604-59.242l32.635 32.635-207.693 207.693-32.635-32.635 207.693-207.693z"  horiz-adv-x="1024" />

    
    <glyph glyph-name="arrow-down-c" unicode="&#46639;" d="M324.253 308.23c-17.137 16.389-45.012 16.389-62.194 0-17.181-16.306-17.181-42.819 0-59.167l216.647-248.573c9.16-8.713 21.301-12.448 33.309-11.825 11.965-0.623 24.106 3.112 33.309 11.825l216.647 248.572c17.137 16.347 17.137 42.861 0 59.167-17.225 16.389-45.1 16.389-62.237 0l-144.592-165.881v593.155c0 22.986-19.592 41.574-43.829 41.574s-43.829-18.588-43.829-41.574v-591.578l-143.233 164.304zM324.253 308.23c-17.137 16.389-45.012 16.389-62.194 0-17.181-16.306-17.181-42.819 0-59.167l216.647-248.573c9.16-8.713 21.301-12.448 33.309-11.825 11.965-0.623 24.106 3.112 33.309 11.825l216.647 248.572c17.137 16.347 17.137 42.861 0 59.167-17.225 16.389-45.1 16.389-62.237 0l-144.592-165.881v593.155c0 22.986-19.592 41.574-43.829 41.574s-43.829-18.588-43.829-41.574v-591.578l-143.233 164.304z"  horiz-adv-x="1024" />

    
    <glyph glyph-name="arrow-up-c" unicode="&#46640;" d="M464.517 637.602v-631.017c0-24.518 20.898-44.345 46.751-44.345 25.852 0 46.751 19.827 46.751 44.345v632.699l154.232-176.94c18.279-17.482 48.012-17.482 66.386 0 18.279 17.393 18.279 45.674 0 63.111l-231.090 265.144c-9.818 9.294-22.767 13.278-35.53 12.613-12.81 0.664-25.76-3.32-35.53-12.613l-231.090-265.144c-18.326-17.437-18.326-45.718 0-63.111 18.326-17.482 48.060-17.482 66.34 0l152.782 175.258zM464.517 637.602v-631.017c0-24.518 20.898-44.345 46.751-44.345 25.852 0 46.751 19.827 46.751 44.345v632.699l154.232-176.94c18.279-17.482 48.012-17.482 66.386 0 18.279 17.393 18.279 45.674 0 63.111l-231.090 265.144c-9.818 9.294-22.767 13.278-35.53 12.613-12.81 0.664-25.76-3.32-35.53-12.613l-231.090-265.144c-18.326-17.437-18.326-45.718 0-63.111 18.326-17.482 48.060-17.482 66.34 0l152.782 175.258z"  horiz-adv-x="1024" />

    
    <glyph glyph-name="round-a" unicode="&#46645;" d="M69.886 384c0-0 0-0 0-0 0-244.172 197.941-442.113 442.113-442.113 244.172 0 442.113 197.941 442.113 442.113 0 0 0 0 0 0 0 0 0 0 0 0 0 244.172-197.941 442.113-442.113 442.113-244.172 0-442.113-197.941-442.113-442.113 0-0 0-0 0-0z"  horiz-adv-x="1024" />

    
    <glyph glyph-name="delete-b" unicode="&#46630;" d="M557.312 370.752l265.28 263.904c12.544 12.48 12.608 32.704 0.128 45.248-12.512 12.576-32.704 12.608-45.248 0.128l-265.344-263.936-263.04 263.84c-12.448 12.48-32.704 12.544-45.248 0.064-12.512-12.48-12.544-32.736-0.064-45.28l262.976-263.776-265.152-263.744c-12.544-12.48-12.608-32.704-0.128-45.248 6.24-6.272 14.464-9.44 22.688-9.44 8.16 0 16.32 3.104 22.56 9.312l265.216 263.808 265.44-266.24c6.24-6.272 14.432-9.408 22.656-9.408 8.192 0 16.352 3.136 22.592 9.344 12.512 12.48 12.544 32.704 0.064 45.248l-265.376 266.176z"  horiz-adv-x="1024" />

    
    <glyph glyph-name="man-j" unicode="&#46800;" d="M862.8714666666667 51.834666666666635c0-27.0912-3.323733333333333-53.35466666666667-9.085866666666668-78.6976h-81.15733333333333c7.416533333333334 24.9376 11.544533333333334 51.336533333333335 11.544533333333334 78.6976 0 152.13013333333333-123.32586666666666 275.43786666666665-275.43786666666665 275.43786666666665-152.10666666666665 0-275.43786666666665-123.30773333333333-275.43786666666665-275.43786666666665 0-27.36 4.130133333333333-53.75893333333333 11.5456-78.6976h-81.15733333333333c-5.763199999999999 25.342933333333335-9.086933333333333 51.60746666666666-9.086933333333333 78.6976 0 144.7104 86.90133333333333 268.9344 211.26719999999997 323.88266666666664-56.563199999999995 43.13066666666667-93.22133333333333 111.02293333333334-93.22133333333333 187.64266666666666 0 130.3904 105.6896 236.09066666666666 236.08853333333332 236.09066666666666 130.39893333333333 0 236.0896-105.70133333333332 236.0896-236.09066666666666 0-76.61973333333333-36.6592-144.512-93.22133333333333-187.64266666666666 124.36586666666666-54.950399999999995 211.26719999999997-179.17226666666664 211.26719999999997-323.88266666666664zM666.1322666666667 563.3610666666667c0 86.93013333333333-70.47466666666666 157.39306666666667-157.3952 157.39306666666667-86.9376 0-157.392-70.46293333333332-157.392-157.39306666666667 0-86.928 70.45333333333333-157.3952 157.392-157.3952 86.92053333333334 0 157.3952 70.46613333333333 157.3952 157.3952z"  horiz-adv-x="1024" />

    
    <glyph glyph-name="delete-f" unicode="&#46739;" d="M512 787.394c-211.394 0-382.707-171.313-382.707-382.707s171.313-382.707 382.707-382.707c211.394 0 382.707 171.313 382.707 382.707 0 211.394-171.313 382.707-382.707 382.707zM741.366 215.143l-42.408-40.339-186.311 174.933-180.105-174.933-40.986 40.339 185.406 179.976-185.406 179.976 40.986 40.339 180.234-174.933 186.311 174.933 42.408-40.339-191.871-179.976 191.741-179.976z"  horiz-adv-x="1024" />

    
    <glyph glyph-name="eye-a" unicode="&#46605;" d="M511.466 626.431c169.452 0 315.308-99.391 383.565-242.84h66.514c-72.089 177.91-246.292 303.526-450.079 303.526-203.755 0-377.958-125.617-450.047-303.526h66.515c68.256 143.449 214.111 242.84 383.532 242.84zM511.466 140.752c-169.421 0-315.277 99.391-383.532 242.84h-66.515c72.088-177.941 246.291-303.558 450.047-303.558 203.786 0 377.99 125.617 450.079 303.558h-66.514c-68.257-143.449-214.111-242.84-383.565-242.84zM349.594 383.576c0-89.412 72.474-161.886 161.885-161.886 89.413 0 161.886 72.474 161.886 161.886 0 89.413-72.473 161.886-161.886 161.886-89.412 0-161.885-72.473-161.885-161.886zM612.678 383.576c0-55.88-45.32-101.198-101.199-101.198s-101.166 45.318-101.166 101.198c0 55.88 45.287 101.199 101.166 101.199s101.199-45.319 101.199-101.199z"  horiz-adv-x="1024" />

    
    <glyph glyph-name="arrow-left-b" unicode="&#46633;" d="M224.833 384.064l446.4-446.464v892.8l-446.4-446.336z"  horiz-adv-x="1024" />

    
    <glyph glyph-name="arrow-right-b" unicode="&#46666;" d="M352.767 830.4v-892.736l446.528 446.464-446.528 446.272z"  horiz-adv-x="1024" />

    
    <glyph glyph-name="arrow-down-b" unicode="&#45650;" d="M921.744499 577.312343L512.045156 145.46403799999996 102.255501 577.2446090000001 921.744499 577.312343zM921.744499 577.312343"  horiz-adv-x="1024" />

    
    <glyph glyph-name="del-a" unicode="&#46661;" d="M192 448h640c35.328 0 64-28.672 64-64s-28.672-64-64-64h-640c-35.392 0-64 28.672-64 64s28.608 64 64 64z"  horiz-adv-x="1024" />

    
    <glyph glyph-name="link-a" unicode="&#46769;" d="M772.66784382 644.66784382c54.70806574-54.70806574 54.70806649-144.81546879 0-199.52353528l-128.7248614-128.72486139L705.08729172 255.27513936000003l128.72486139 128.7248614c88.49834179 88.49834179 88.49834179 233.31381057 0 321.81215235s-233.31381057 88.49834179-321.81215235 0l-128.7248614-128.72486139 61.1443093-61.1443093 128.72486139 128.7248614C627.85237503 699.37591031 717.95977808 699.37590955 772.66784382 644.66784382zM608.54364586 544.90607694L351.09392306 287.45635414000003l64.36243033-64.36243032L672.90607694 480.54364586 608.54364586 544.90607694zM512 62.18784763999997L640.72486064 190.91270827999995l-61.1443093 61.1443093-128.72486139-128.7248614c-54.70806574-54.70806574-144.81546879-54.70806649-199.52353528 0s-54.70806649 144.81546879 0 199.52353528L380.05701682 451.58055209 318.91270828 512.72486064l-128.72486139-128.7248614c-88.49834179-88.49834179-88.49834179-233.31381057 0-321.81215235S423.50165746-26.31049489999998 512 62.18784763999997z"  horiz-adv-x="1024" />

    
    <glyph glyph-name="pass-b" unicode="&#46650;" d="M514.196 764.569c-217.502 0-393.828-176.319-393.828-393.828s176.318-393.828 393.828-393.828c217.509 0 393.82 176.319 393.826 393.828 0 217.503-176.318 393.828-393.826 393.828v0zM726.627 471.432l-266.378-266.384c-5.253-5.249-14.374-4.651-20.367 1.342l-17.852 17.857c-0.006 0-0.011 0-0.011 0.007l-119.347 119.347c-5.987 5.986-5.987 15.708 0 21.695l32.552 32.544c5.992 6.007 15.709 5.998 21.702 0l93.804-93.812 221.648 221.649c5.256 5.26 14.377 4.664 20.362-1.334l32.552-32.545c5.993-5.998 6.59-15.113 1.334-20.366v0z"  horiz-adv-x="1024" />

    
    <glyph glyph-name="key-a" unicode="&#46801;" d="M562.332 328.38800000000003h344.004v111.789h-93.628v113.555h-74.903v-113.555h-175.612c-24.946 96.923-112.93 168.531-217.628 168.531-124.095 0-224.709-100.598-224.709-224.709 0-124.111 100.614-224.708 224.709-224.708 104.902 0 193.018 71.889 217.767 169.097zM194.759 383.999c0 82.748 67.075 149.806 149.805 149.806s149.805-67.058 149.805-149.806c0-82.747-67.076-149.805-149.805-149.805s-149.805 67.058-149.804 149.805z"  horiz-adv-x="1024" />

    
    <glyph glyph-name="bulb-a" unicode="&#46678;" d="M797.287 445.341c0.491 6.771 1.063 13.561 1.063 20.474s-0.573 13.662-1.043 20.454h82.858v-40.928h-82.878zM699.334 682.050l58.518 58.518 28.942-28.921-58.559-58.559c-8.938 10.371-18.572 20.024-28.901 28.962v0zM634.722 254.038v-217.769c0-56.472-45.775-102.268-102.268-102.268h-40.907c-56.493 0-102.268 45.817-102.268 102.268v217.606c-73.265 42.38-122.722 121.29-122.722 212.022 0 135.505 109.856 245.362 245.32 245.362 135.505 0 245.341-109.856 245.341-245.341 0-90.651-49.355-169.438-122.497-211.879v0zM512-25.072c45.182 0 81.835 36.612 81.835 81.794h-163.65c-0.021-45.182 36.633-81.794 81.815-81.794v0zM593.835 97.65v40.907h-163.65v-40.907h163.65zM511.959 662.047c-108.363 0-196.211-87.848-196.211-196.211 0-79.135 46.962-147.164 114.418-178.212v-108.2h163.65v108.241c67.436 31.028 114.315 99.078 114.315 178.172 0.021 108.363-87.807 196.211-196.171 196.211v0zM491.547 751.102v82.878h40.907v-82.878c-6.79 0.471-13.54 1.043-20.453 1.043s-13.662-0.552-20.453-1.043v0zM237.206 711.667l28.942 28.921 58.559-58.559c-10.329-8.938-20.004-18.612-28.942-28.921l-58.559 58.559zM143.835 445.341v40.928h82.878c-0.491-6.79-1.063-13.54-1.063-20.453s0.573-13.704 1.043-20.474h-82.858z"  horiz-adv-x="1024" />

    
    <glyph glyph-name="diqiu" unicode="&#46985;" d="M511.581468 679.411103M225.883587 466.691327M498.16797 768.180869l25.449625 0c44.163849-2.050706 88.164992-10.604522 129.219014-27.243481 85.606727-33.871435 157.853168-99.920734 199.441355-182.036963 26.436092-51.462069 40.429805-109.030206 41.668005-166.821423l0-13.72049c-1.221828-57.046251-14.838963-113.863281-40.634466-164.821883C828.190359 163.34857799999997 791.747355 118.90332000000001 747.660254 84.17742399999997c-45.108361-35.57524-98.339726-60.815087-154.485467-73.03541-22.803355-5.14416-46.112224-7.537673-69.40779-8.930393l-25.475208 0c-30.538527 1.614777-61.011562 5.729491-90.456175 14.121626-71.304999 19.761066-136.410809 60.948117-185.036273 116.687606-34.199916 38.912242-60.307527 84.919065-76.271104 134.209678-11.685133 35.845393-17.638729 73.442686-18.582217 111.11161l0 13.690814c1.363044 69.925582 21.932522 139.396817 59.632145 198.358697 39.975457 62.997799 98.697883 113.964588 166.875658 144.349619C399.562185 755.254465 448.75149 765.951085 498.16797 768.180869L498.16797 768.180869zM425.054789 686.483172c-24.264637-30.491455-40.10951-66.635653-52.974515-103.167684 18.056238-4.53427 36.592406-6.507204 54.965869-9.277294 22.782889-2.349511 45.629223-4.425799 68.565609-4.604878-0.017396 55.547107 0.013303 111.093191-0.017396 166.657694C466.437292 729.942987 442.992323 709.313134 425.054789 686.483172L425.054789 686.483172zM526.278191 569.445596c31.000038 0.555655 61.986773 3.128247 92.610234 8.093329 10.413164 1.332345 20.736277 3.27765 30.92329 5.806239-15.048741 42.75885-34.43937 85.333504-66.246797 118.366851-15.545044 16.293081-34.929534 29.650297-57.238632 34.380018C526.236236 680.540833 526.314007 624.9937259999999 526.278191 569.445596L526.278191 569.445596zM394.790508 717.867974c-54.157457-18.877953-103.561657-51.265594-142.4432-93.439112 28.439726-15.023158 58.913784-26.123984 90.032526-34.097586 16.250102 48.979528 39.049365 97.42182 75.778894 134.478807C410.168754 723.2393079999999 402.493957 720.456938 394.790508 717.867974L394.790508 717.867974zM603.582835 725.034187c7.644097-7.046486 13.793144-15.468296 20.467147-23.381523 25.031093-33.435507 42.536792-71.88726 55.534827-111.411439 31.101345 8.109702 61.489446 19.269879 90.049922 34.093493C725.171054 672.524253 667.001213 708.159868 603.582835 725.034187L603.582835 725.034187zM231.922117 600.47531c-44.01547-57.132208-70.134337-127.864156-72.934103-199.99087 51.04763 0.090051 102.095259 0.030699 153.138796 0.030699 0.986467 54.038754 7.91732 108.013039 21.51399 160.347988C298.377668 570.1332580000001 263.955694 583.004403 231.922117 600.47531L231.922117 600.47531zM688.246073 560.8621029999999c13.599739-52.333926 20.526499-106.309234 21.500687-160.331615 51.077306 0.013303 102.151541 0 153.228847 0-3.003404 72.109318-28.930913 142.884244-73.070202 199.974497C757.952668 582.914352 723.449853 570.223309 688.246073 560.8621029999999L688.246073 560.8621029999999zM342.737992 400.651238c50.958602-0.26913 101.916181-0.047072 152.869666-0.12075L495.607658 538.8088319999999c-44.35623 0.820692-88.747253 5.430686-132.115993 14.930037C350.309434 503.81483 343.874885 452.233034 342.737992 400.651238L342.737992 400.651238zM526.278191 538.822135c0-46.108131 0-92.199888 0.017396-138.291646 50.958602 0.090051 101.912088-0.165776 152.869666 0.132006-1.149173 51.586912-7.584746 103.168708-20.766976 153.105027C615.043864 544.210865 570.639538 539.646919 526.278191 538.822135L526.278191 538.822135zM158.959362 369.878374c2.871397-72.126714 28.936029-142.858662 72.979128-199.99087 31.999808 17.519002 66.468854 30.30726 101.703333 39.642882-13.613042 52.329832-20.48045 106.321514-21.543665 160.347988C261.054621 369.848699 210.006991 369.848699 158.959362 369.878374L158.959362 369.878374zM342.755388 369.758648c1.136893-51.599192 7.493671-103.245456 20.807908-153.165402 43.314505 9.665127 87.717807 14.121626 132.031059 14.97711 0.017396 46.090734 0.017396 92.199888 0.017396 138.290623C444.654172 369.788324 393.696594 369.997078 342.755388 369.758648L342.755388 369.758648zM526.278191 369.86097800000005l0-138.278343c44.391023-0.807389 88.781022-5.473665 132.168182-14.915711 12.984732 50.013067 19.85214 101.612259 20.527522 153.271826C628.075669 369.758648 577.177442 369.90293399999996 526.278191 369.86097800000005L526.278191 369.86097800000005zM709.733457 369.86097800000005c-0.896416-54.021358-7.91732-107.995643-21.471011-160.330592 35.218106-9.28855 69.673849-22.081924 101.660354-39.630602 44.13315 57.075927 70.049403 127.851876 73.052806 199.947891C811.898301 369.878374 760.806669 369.848699 709.733457 369.86097800000005L709.733457 369.86097800000005zM372.109949 187.14863300000002c14.912641-42.860157 34.45165-85.46551 66.276473-118.528534 15.527648-16.262382 34.918277-29.607318 57.207933-34.30327 0.047072 55.530734 0 111.076818 0.017396 166.624948C454.153524 200.12210900000002 412.667667 195.899948 372.109949 187.14863300000002L372.109949 187.14863300000002zM526.278191 200.95917399999996c0.017396-55.547107-0.029676-111.11161 0.034792-166.657694 29.093619 6.148024 52.525284 26.705222 70.433142 49.505507 24.312732 30.53341 40.258912 66.720587 53.052287 103.34267-18.59552 4.491291-37.614689 6.65763-56.507992 9.395998C570.998719 198.715063 548.690644 200.822051 526.278191 200.95917399999996L526.278191 200.95917399999996zM252.286933 146.04037700000003c44.446281-48.154743 102.586446-83.83743 165.991522-100.639095-36.729529 37.148062-59.665915 85.58933-75.886341 134.671189C311.200718 172.20733900000005 280.876062 160.77700900000002 252.286933 146.04037700000003L252.286933 146.04037700000003zM679.555134 180.10316999999998c-16.322757-49.112558-39.211047-97.614202-76.018348-134.808312 63.362096 16.950044 121.54524 52.495608 166.009941 100.667747C741.134631 161.01237000000003 710.644199 172.027238 679.555134 180.10316999999998L679.555134 180.10316999999998zM679.555134 180.10316999999998"  horiz-adv-x="1024" />

    
    <glyph glyph-name="case" unicode="&#46652;" d="M-114.97467904 799.6556617955555l-1.2609319822222222 19.20854016-1.2399741155555555-19.685900515555552 0.5588616533333333-8.863778133333334 0-20.76636615111111 0.027942684444444442-0.6822764088888889c0.01164288-0.28408831999999995 0.28874524444444444-6.977620195555556 0.6613196800000001-7.275679288888888 0.008149902222222222-0.006985955555555555 0.015135857777777777-0.00931384888888889 0.02328576-0.00931384888888889 0.36558847999999994 0 0.6007762488888888 6.837904497777777 0.6112551822222223 7.135964728888889l0.02328576 0.6741265066666666 0 20.72561664L-114.97467904 799.6556617955555-114.97467904 799.6556617955555zM-116.23444593777769 813.8204763022222l0.9360930133333332-14.266107448888887-0.9372569599999999-15.001941333333333-0.9209571555555556 14.628202951111112L-116.23444593777769 813.8204763022222-116.23444593777769 813.8204763022222zM-115.71284195555556 771.4552718222221c-0.06287246222222223-1.5450191644444444-0.2538166044444444-5.516430222222223-0.5122901333333334-5.32548608-0.26313045333333335 0.21073692444444442-0.47736149333333333 4.1751620266666665-0.5507117511111111 5.727167146666666L-116.77584384000004 788.0639408355555l0.5402328177777778-8.584347875555556 0.5227679288888889 8.367788942222223L-115.71284195555556 771.4552718222221-115.71284195555556 771.4552718222221zM-115.71284195555556 771.4552718222221M483.6685801244444 395.88861724444445l184.5535732622222 0 0-71.32937216L483.6685801244444 324.55924508444457 483.6685801244444 395.88861724444445 483.6685801244444 395.88861724444445zM483.6685801244444 395.88861724444445M714.3666585599999 277.0117631999999L437.5298958222223 277.0117631999999l0 48.21578638222222L114.55677667555558 325.2275495822223l0-313.39446385777774c0-37.38551409777778 30.17619911111111-67.69327900444443 67.85278748444445-67.69327900444443l787.0785911466667 0c37.46817934222222 0 67.84812942222223 30.54411662222222 67.84812942222223 67.69327900444443L1037.336284728889 325.2275495822223 714.3666585599999 325.2275495822223 714.3666585599999 277.0117631999999 714.3666585599999 277.0117631999999zM714.3666585599999 277.0117631999999M1016.0925570844444 704.9786811733334L760.5006859377778 704.9786811733334c0 65.65343345777778-82.62652700444444 118.88151096888889-184.55939413333334 118.88151096888889-101.92122424888888 0-184.5489163377778-53.22807637333333-184.5489163377778-118.88151096888889L135.8051612444444 704.9786811733334c-37.216691768888886 0-67.39289088-30.12613461333333-67.39289088-67.35912618666666l0-198.14788209777777c0-37.20039082666666 30.38460814222222-67.35912618666666 67.39289088-67.35912618666666l301.7247345777778 0 0 71.32937216 276.83559879111107 0 0-71.32937216 301.7270624711111 0c37.21203370666666 0 67.381248 30.12613461333333 67.381248 67.35912618666666L1083.4738050844446 637.6195561244444C1083.4749690311114 674.8199469511111 1053.1008398222223 704.9786811733334 1016.0925570844444 704.9786811733334L1016.0925570844444 704.9786811733334zM437.5298958222223 704.9786811733334c0 39.39275889777778 61.96960369777777 71.32937216 138.41023203555557 71.32937216 76.45692700444444 0 138.42536789333332-31.936613262222224 138.42536789333332-71.32937216L437.5298958222223 704.9786811733334 437.5298958222223 704.9786811733334zM437.5298958222223 704.9786811733334"  horiz-adv-x="1122" />

    
    <glyph glyph-name="arrow-up-a" unicode="&#746495;" d="M102.484 163.86400000000003c13.737-13.562 35.837-13.492 49.435 0.213l358.217 361.483 363.215-359.947c13.738-13.598 35.837-13.498 49.474 0.207 13.605 13.745 13.497 35.874-0.208 49.478l-386.045 382.535c-0.598 0.591-1.366 0.733-1.958 1.29-0.144 0.138-0.175 0.314-0.315 0.455-6.818 6.747-15.739 10.141-24.617 10.141-8.984 0-18.007-3.462-24.824-10.35l-382.551-386.03c-13.637-13.743-13.53-35.873 0.176-49.477v0zM102.484 163.86400000000003z"  horiz-adv-x="1024" />

    
    <glyph glyph-name="add-a" unicode="&#46662;" d="M188.139 324.184c-31.769 0-57.533 25.763-57.533 57.533 0 31.769 25.763 57.532 57.533 57.532l263.028 0 0 263.029c0 31.771 25.777 57.532 57.547 57.532 31.753 0 57.533-25.762 57.533-57.532l0-263.028 263.027 0c31.769 0 57.533-25.762 57.533-57.532 0-31.771-25.763-57.532-57.533-57.532l-263.027 0 0-263.027c0-31.786-25.779-57.548-57.533-57.548-31.77 0-57.547 25.763-57.547 57.548l0 263.026-263.028 0z"  horiz-adv-x="1024" />

    
    <glyph glyph-name="arrow-up-b" unicode="&#46636;" d="M102.256 190.688l409.699 431.848 409.79-431.781-819.489-0.068zM102.256 190.688z"  horiz-adv-x="1024" />

    
    <glyph glyph-name="more-b" unicode="&#46975;" d="M408.32192 54.02207999999996C408.32192 110.89728000000002 454.52576 157.00415999999996 511.52096 157.00415999999996 568.5152 157.00415998999995 614.71904 110.89728000000002 614.71904 54.02208000999997 614.71904-2.8540799999999535 568.5152-48.960000000000036 511.52096-48.960000000000036 454.52576-48.960000000000036 408.32192-2.8540799999999535 408.32192 54.02207999999996ZM408.32192 384.48C408.32192 441.3552 454.52576 487.46208 511.52096 487.46208 568.5152 487.46207999 614.71904 441.35520001 614.71904001 384.48 614.71904 327.60479998999995 568.5152 281.49792001000003 511.52096 281.49792 454.52576 281.49792 408.32192 327.60479999999995 408.32192 384.48ZM408.32192 714.93792C408.32192 771.81312 454.52576 817.92 511.52096 817.92 568.5152 817.92 614.71904001 771.81312 614.71904 714.93791999 614.71904 658.06272 568.51520001 611.9558400000001 511.52096 611.9558400000001 454.52576 611.9558400000001 408.32192 658.06272 408.32192 714.93792Z"  horiz-adv-x="1024" />

    
    <glyph glyph-name="tag" unicode="&#46649;" d="M511.952928-62.92898200000002c-71.366398 0-139.586129 16.321734-202.763007 48.511877-60.225663 30.685883-113.628944 75.499531-154.437371 129.59559-12.253068 16.241916-9.018398 39.34203 7.223518 51.595099 16.241916 12.254092 39.341007 9.019421 51.595099-7.223518 34.114982-45.221948 78.746482-82.679048 129.068587-108.320031 52.719712-26.861788 109.685121-40.481993 169.314197-40.481993 99.767238 0 193.563484 38.851866 264.10919 109.397572 70.545706 70.545706 109.397572 164.341952 109.397572 264.10919 0 99.767238-38.851866 193.562461-109.397572 264.10919-70.544683 70.545706-164.341952 109.397572-264.10919 109.397572-99.767238 0-193.562461-38.851866-264.10919-109.397572S138.446165 484.023064 138.446165 384.255827c0-36.192294 5.158487-71.954799 15.331173-106.294908 5.77861-19.506263-5.349845-40.006156-24.857131-45.785789-19.508309-5.779633-40.006156 5.349845-45.785789 24.858154-12.187577 41.136909-18.3663 83.940784-18.3663 127.222543 0 60.353576 11.828396 118.92046 35.156708 174.075641 22.525016 53.254901 54.763255 101.075023 95.820346 142.132114 41.057091 41.057091 88.877213 73.29533 142.132114 95.820346 55.154157 23.328311 113.722064 35.156708 174.075641 35.156708S630.874411 819.612239 686.028569 796.283927c53.254901-22.525016 101.074-54.763255 142.132114-95.820346 41.057091-41.057091 73.29533-88.877213 95.820346-142.132114 23.328311-55.154157 35.156708-113.722064 35.156708-174.075641 0-60.353576-11.82942-118.92046-35.156708-174.075641-22.525016-53.254901-54.763255-101.075023-95.820346-142.133138-41.057091-41.056068-88.877213-73.29533-142.132114-95.820346C630.874411-51.10058600000002 572.305481-62.92898200000002 511.952928-62.92898200000002zM750.116189 507.022894c-14.32731 14.32731-37.771255 14.32731-52.098565 0L540.088732 349.02748699999995 423.146323 465.969896c-7.319709 7.319709-17.018605 10.890025-26.666336 10.730389-9.647731 0.159636-19.346627-3.41068-26.666336-10.730389L257.906931 354.46124299999997c-14.32731-14.32731-14.32731-37.771255 0-52.098565s37.771255-14.32731 52.098565 0l86.429465 86.122473 116.641557-116.641557c7.408737-7.408737 17.254989-10.975982 27.01733-10.722202 9.763364-0.25378 19.608593 3.313465 27.01733 10.722202l183.003987 183.081759C764.442476 469.251639 764.442476 492.695584 750.116189 507.022894z"  horiz-adv-x="1024" />

    
    <glyph glyph-name="arrow-left-a" unicode="&#46643;" d="M732.136-25.515999999999963c13.562 13.737 13.492 35.837-0.213 49.435l-361.483 358.217 359.947 363.215c13.598 13.738 13.498 35.837-0.207 49.474-13.745 13.605-35.874 13.497-49.478-0.208l-382.535-386.045c-0.591-0.598-0.733-1.366-1.29-1.958-0.138-0.144-0.314-0.175-0.455-0.315-6.747-6.818-10.141-15.739-10.141-24.617 0-8.984 3.462-18.007 10.35-24.824l386.03-382.551c13.743-13.637 35.873-13.53 49.477 0.176v0zM732.136-25.515999999999963z"  horiz-adv-x="1024" />

    
    <glyph glyph-name="arrow-right-a" unicode="&#46644;" d="M291.864 793.516c-13.562-13.737-13.492-35.837 0.213-49.435l361.483-358.217-359.947-363.215c-13.598-13.738-13.498-35.837 0.207-49.474 13.745-13.605 35.874-13.497 49.478 0.208l382.535 386.045c0.591 0.598 0.733 1.366 1.29 1.958 0.138 0.144 0.314 0.175 0.455 0.315 6.747 6.818 10.141 15.739 10.141 24.617 0 8.984-3.462 18.007-10.35 24.824l-386.03 382.551c-13.743 13.637-35.873 13.53-49.477-0.176v0zM291.864 793.516z"  horiz-adv-x="1024" />

    
    <glyph glyph-name="flag-a" unicode="&#47228;" d="M881.45652237 751.87183154C881.46304297 763.39436631 875.14347763 774.29577451 864.97608711 780.31690107 854.97173896 786.25563369 841.82391318 786.70563369 831.40217334 781.46408467 795.42173867 763.3373235399999 760.06086963 748.32887344 691.55 748.32887344 616.32826104 748.32887344 581.00000029 766.41126739 540.08913008 787.34577451 497.16956533 809.26267646 448.74565244 834 356.71086934 834 287.4173917 834 245.15652237 819.98661943 216.06956562 807.77957753L206.83478252 803.9070419 203.10434756 812.98309893C197.85434786 825.7478877 185.37173896 834 171.29782636 834 152.38478252 834 136.99999971 819.0485917999999 136.99999971 800.66831016L136.99999971-27.502814639999997C136.99999971-45.87675761000003 152.38478252-60.828172859999995 171.29782636-60.828172859999995 190.20434786-60.828172859999995 205.58913067-45.88309541000001 205.58913067-27.502814639999997L205.58913067 328.74507041000004 210.83260888 331.41338056999996C251.00652237 351.87887344 287.26086992 367.53380214000003 356.70434785 367.53380214000003 431.85434785 367.53380214000003 467.16956562 349.48943584000006 508.06086963 328.59295810000003 550.86956562 306.66338056999996 599.30652237 281.85633867 691.54347763 281.85633867 775.14565273 281.85633867 822.05652237 301.89084491999995 862.92826104 322.40704189999997 874.35434727 328.16197236999994 881.45652237 339.51971835999996 881.45652237 352.06267558L881.45652237 751.87183154Z"  horiz-adv-x="1024" />

    
    <glyph glyph-name="monitor-a1" unicode="&#47669;" d="M509.35563594 392.62254562l-76.95709125 63.53454563c-6.03927281 5.04436406-13.92 7.38327281-21.80072719 6.65018156-7.88945438-0.74181844-15.01963594-4.67781844-20.08145438-10.83054562L215.28145438 234.62400000000002l-80.54400001 0L134.73745437 707.86909125l754.51636407 0 0-473.23636406L481.64654563 234.63272718999997c-16.37236406 0-29.55927281-13.18690875-29.55927282-29.55054563L452.08727281 60.13090875 278.45818156 60.13090875c-16.37236406 0-29.55927281-13.18690875-29.55927281-29.55927281 0-16.37236406 13.18690875-29.55927281 29.55927281-29.55927281l397.37890875 0c16.37236406 0 29.55927281 13.18690875 29.55927281 29.55927281 0 16.37236406-13.18690875 29.55927281-29.55927281 29.55927281L511.20581844 60.13090875 511.20581844 175.51418156l407.59854562 0c16.38981844 0 29.55927281 13.16945438 29.55927282 29.55927281L948.36363594 737.42836406c0.12218156 16.38981844-13.16945438 29.55927281-29.41963594 29.55927282L105.18690875 766.98763594C88.80581844 766.98763594 75.63636406 753.80072719 75.63636406 737.42836406l0-532.34618156c0-16.38981844 13.16945438-29.55927281 29.55054563-29.55927281l124.13672718 0c8.98909125 0 17.36727281 4.05818156 23.04 10.95272719l165.37309126 205.03854562 75.48218156-62.31272719c12.07854563-9.96654563 29.81236406-8.736 40.52945437 2.70545438L680.52363594 490.272c14.28654563-8.736 31.03418156-13.65818156 49.01236406-13.65818156 52.09309125 0 94.57745437 42.35345437 94.57745437 94.57745437 0 52.20654563-42.37090875 94.57745437-94.57745437 94.57745438-52.09309125 0-94.57745437-42.37090875-94.57745438-94.57745438 0-12.55854563 2.46981844-24.62836406 7.00800001-35.58981844M729.536 606.76363594c19.584 0 35.46763594-15.88363594 35.46763594-35.45890875 0-19.584-15.89236406-35.46763594-35.46763594-35.46763594s-35.46763594 15.88363594-35.46763594 35.46763594C694.06836406 590.88 709.96072719 606.76363594 729.536 606.76363594z"  horiz-adv-x="1024" />

    
    <glyph glyph-name="exit-a" unicode="&#46641;" d="M511.99910087890623 7.536842285156126c-46.62259013671875 0-91.8709119140625 9.139603710937498-134.4885169921875 27.165181640625-41.14440439453125 17.403200683593752-78.0877564453125 42.307316015625-109.80295400390625 74.02341181640625-31.7151966796875 31.7160966796875-56.6211111328125 68.65944873046875-74.02341181640625 109.803853125-18.02557880859375 42.617605078125-27.165181640625 87.86592685546876-27.165181640625 134.4885169921875 0 126.79153505859374 69.270134765625 243.18611982421874 180.7774330078125 303.76005029296874 18.91417587890625 10.271935546875 42.57623320312501 3.2710825195312503 52.8508669921875-15.64309423828125 10.2746337890625-18.91417587890625 3.2710825195312503-42.57623320312501-15.64309423828125-52.85176611328125-86.37833583984376-46.9238853515625-140.03775439453122-137.07156533203127-140.03775439453122-235.26608994140622 0-147.51888222656248 120.01462998046877-267.53351220703127 267.53351220703127-267.53351220703127s267.53351220703127 120.01462998046877 267.53351220703127 267.53351220703127c0 96.78248173828125-52.525287597656245 186.30598447265626-137.0778609375 233.63459560546875-18.78196552734375 10.5129720703125-25.486020703125 34.2622705078125-14.9721486328125 53.04513515625 10.5129720703125 18.78196552734375 34.2622705078125 25.48691982421875 53.04513515625 14.97124951171875 52.708763671875-29.50359697265625 96.98304550781249-72.50074453124999 128.0371904296875-124.34339531250001 32.00030419921875-53.4219802734375 48.9151353515625-114.73341064453125 48.9151353515625-177.30758583984374 0-46.62259013671875-9.139603710937498-91.8709119140625-27.166081640625-134.4885169921875-17.4023015625-41.14440439453125-42.307316015625-78.0877564453125-74.02341181640625-109.803853125-31.7160966796875-31.7160966796875-68.65944873046875-56.6202111328125-109.80295400390625-74.02341181640625C603.8709119140625 16.67644511718754 558.6216901367187 7.536842285156126 511.99910087890623 7.536842285156126zM511.99910087890623 379.84301865234374c-23.67015205078125 0-42.8586416015625 19.188490429687498-42.8586416015625 42.8586416015625L469.1404583984375 717.6045161132813c0 23.67015205078125 19.188490429687498 42.8586416015625 42.8586416015625 42.8586416015625 23.67015205078125 0 42.8586416015625-19.188490429687498 42.8586416015625-42.8586416015625l0-294.90285585937494C554.8586416015625 399.031508203125 535.6701520507813 379.84301865234374 511.99910087890623 379.84301865234374z"  horiz-adv-x="1024" />

    
    <glyph glyph-name="download-a" unicode="&#46836;" d="M495.90727111111113 117.04206222222228c10.141013333333333-10.492586666666666 28.818773333333336-10.492586666666666 38.959786666666666 0l329.74961777777776 341.90449777777775c13.729564444444444 14.235875555555557 2.0400355555555554 35.90371555555556-19.48103111111111 35.90371555555556h-213.00451555555554v311.00017777777776c0 10.798648888888888-8.731306666666667 19.580017777777776-19.463964444444443 19.580017777777776h-197.0130488888889c-10.73607111111111 0-19.463964444444443-8.78023111111111-19.463964444444443-19.580017777777776v-311.00131555555555h-210.54805333333334c-21.521066666666666 0-33.20832-21.66670222222222-19.48103111111111-35.90371555555556l329.74961777777776-341.9022222222222zM847.0732800000001 26.355484444444414h-663.3710933333334c-12.99000888888889 0-23.45984-8.713102222222224-23.45984-19.51744v-49.74819555555555c0-10.758826666666666 10.46983111111111-19.51744 23.45984-19.51744h663.3710933333334c12.929706666666668 0 23.45984 8.758613333333333 23.45984 19.51744v49.74819555555555c-0.001137777777777778 10.807751111111111-10.527857777777777 19.51744-23.45984 19.51744z"  horiz-adv-x="1024" />

    
    <glyph glyph-name="more-a" unicode="&#47251;" d="M155.070836 492.506764C95.1296 492.506764 46.545455 443.941236 46.545455 383.99069099999997c0-59.931927 48.584145-108.497455 108.525382-108.497455 59.931927 0 108.516073 48.565527 108.51607299 108.497455C263.586909 443.941236 215.002764 492.506764 155.070836 492.506764L155.070836 492.506764zM501.182836 492.506764c-59.931927 0-108.516073-48.565527-108.516073-108.52538199 0-59.931927 48.584145-108.497455 108.516073-108.49745501 59.931927 0 108.52538199 48.565527 108.52538199 108.49745501C609.70821801 443.941236 561.114764 492.506764 501.182836 492.506764L501.182836 492.506764zM868.929164 492.506764c-59.931927 0-108.52538199-48.565527-108.52538199-108.52538199 0-59.931927 48.593455-108.497455 108.52538199-108.49745501 59.931927 0 108.52538199 48.565527 108.52538199 108.49745501C977.454545 443.941236 928.8704 492.506764 868.929164 492.506764L868.929164 492.506764z"  horiz-adv-x="1024" />

    
    <glyph glyph-name="return-a" unicode="&#46839;" d="M512.132518-63.54910600000005c-246.927879 0-447.091688 200.160739-447.091688 447.077362 0 246.918669 200.163809 447.094758 447.091688 447.094758 246.919692 0 447.079408-200.176089 447.079408-447.094758S759.052211-63.54910600000005 512.132518-63.54910600000005L512.132518-63.54910600000005zM512.132518 774.731052c-216.052684 0-391.20075-175.146019-391.20075-391.201773 0-216.052684 175.147042-391.20075 391.20075-391.20075 216.055754 0 391.19154 175.147042 391.19154 391.20075C903.322012 599.5850330000001 728.188272 774.731052 512.132518 774.731052L512.132518 774.731052zM707.722148 355.58278700000005L411.926282 355.58278700000005l115.164926-115.1506c10.915607-10.914584 10.915607-28.614711 0-39.533388-10.912537-10.901281-28.600385-10.901281-39.514969 0L329.510224 358.981187c-6.697539 6.706749-8.782014 15.880689-7.252171 24.546046-1.529843 8.665357 0.556679 17.851577 7.252171 24.560372l158.067039 158.069085c10.914584 10.913561 28.602432 10.913561 39.514969 0 10.915607-10.914584 10.915607-28.603455 0-39.518039L411.926282 411.473725 707.722148 411.473725c15.438621 0 27.945469-12.505825 27.945469-27.946492C735.667617 368.10191499999996 723.160769 355.58278700000005 707.722148 355.58278700000005L707.722148 355.58278700000005z"  horiz-adv-x="1024" />

    
    <glyph glyph-name="palyer-a" unicode="&#47157;" d="M238.93333333333337 795.1999999999999L821.3333333333333 464.8c60-34.39999999999999 60-119.19999999999999 0-153.6L238.93333333333337-19.200000000000045c-60-34.39999999999999-135.2 8.8-135.2 76.8V718.4c0.8 68 75.2 111.2 135.2 76.8z m0 0"  horiz-adv-x="1024" />

    
    <glyph glyph-name="alarm-d" unicode="&#47625;" d="M284.127617 734.8364369999999c-7.846712 13.746072-2.879584 29.402657 9.771551 37.236066 4.952802 2.879584 10.712993 3.839445 15.693424 3.839445 8.795317-0.959861 16.649192-5.918803 21.61632-13.749142l36.172851-61.692061-48.030923-27.332509-35.223223 61.698201z m465.431382 0c7.839549 13.746072 2.886747 30.361495-10.727319 37.236066-13.762445 7.833409-30.41266 1.917676-38.266535-9.751085l-35.223223-61.692061 48.030923-27.329438 36.186154 61.536518zM543.822265 804.364977c0 15.656585-12.8077 27.326369-27.383674 27.326368-15.693424 0-28.332279-11.669784-28.332279-27.326368v-71.450309h55.870472V804.364977h-0.154519z m357.681332-193.715957c-4.967128 7.829316-12.806677 12.780071-21.616321 13.741979-4.967128 0-10.740622 0-15.693423-2.874467l-61.799508-36.124756 27.37651-47.942918 62.755276 36.118615c11.857049 6.712889 16.817014 23.332405 8.977466 37.081547m-79.149665-602.197278H802.30634c1.789763 2.679016 2.671852 6.379291 2.671853 9.934256v27.268041c0 12.752442-9.940396 22.685675-22.719444 22.685675H253.542019c-12.759605 0-22.713304-9.933233-22.713305-22.685675v-27.268041c0-3.554966 0.895393-7.255241 2.679016-9.934256H213.465255c-12.780071 0-22.720468-9.925047-22.720468-22.671349v-27.275204c0-12.747325 9.940396-22.679535 22.720468-22.679535h609.78407c12.766768 0 22.719444 9.93221 22.719444 22.679535v27.275204c-0.901533 11.709693-10.848069 22.671349-23.614837 22.671349m-48.298006 112.151289H259.645017V391.517207c0 141.769864 115.577319 256.209266 257.763668 256.209266 142.018527 0 257.763668-114.439402 257.763668-256.209266v-270.913153h-1.116427zM231.299435 584.274326l-62.762439 36.121686c-2.880607 1.917676-6.878664 2.877537-9.771551 2.877537-10.727319 0.958838-21.61018-3.836375-27.376511-13.746073-7.846712-13.746072-3.836375-29.408797 9.764388-37.239135l62.768579-36.122709 27.377534 48.108694z"  horiz-adv-x="1024" />

    
    <glyph glyph-name="more-d" unicode="&#46948;" d="M130.455 169.77700000000004h773.669v-103.156h-773.669v103.156zM130.455 427.667h773.669v-103.156h-773.669v103.156zM130.455 685.557h773.669v-103.156h-773.669v103.156z"  horiz-adv-x="1024" />

    
    <glyph glyph-name="pass-e" unicode="&#47227;" d="M938.393 533.64l-71.047-24.933c13.925-39.679 21.125-81.65 21.125-124.707 0-207.919-168.552-376.47-376.471-376.47S135.53 176.08000000000004 135.53 384c0 207.919 168.551 376.47 376.47 376.47 68.03 0 133.25-18.001 190.517-51.681l38.17 64.902C673.608 813.14 595.447 835.765 512 835.765 262.497 835.765 60.235 633.5029999999999 60.235 384S262.497-67.76499999999999 512-67.76499999999999 963.765 134.49699999999996 963.765 384c0 52.447-8.938 102.807-25.372 149.64zM328.657 431.319L480.443 197.99c14.228-21.872 45.852-22.989 61.588-2.174l352.797 466.657c12.54 16.585 9.259 40.195-7.327 52.734-16.585 12.54-40.195 9.259-52.734-7.327L481.969 241.22299999999996l61.588-2.175-151.785 233.329c-11.338 17.428-34.658 22.366-52.086 11.028-17.43-11.338-22.367-34.657-11.029-52.086z"  horiz-adv-x="1024" />

    
    <glyph glyph-name="wenjian" unicode="&#46598;" d="M573.798 754.789h61.798v-247.193h-61.798zM573.798 569.394h247.193v-61.798h-247.193zM635.596 754.789h-432.587v-741.577h617.981v556.183h-61.798v-494.385h-494.385v617.981h370.789zM635.596 754.789l185.394-185.394h-92.697l-92.697 92.697z"  horiz-adv-x="1024" />

    
    <glyph glyph-name="clock-c" unicode="&#47624;" d="M931.2 377.6c0 233.6-188.8 419.2-419.2 419.2C278.4 796.8 92.8 608 92.8 377.6c0-137.6 67.2-259.2 169.6-336l-57.6-51.2c-9.6-9.6-12.8-25.6-3.2-35.2 9.6-9.6 25.6-12.8 35.2-3.2l70.4 57.6c60.8-35.2 131.2-54.4 208-54.4 80 0 153.6 22.4 214.4 60.8l3.2-3.2 73.6-60.8c9.6-9.6 25.6-6.4 35.2 3.2 9.6 9.6 6.4 25.6-3.2 35.2l-64 54.4c92.8 76.8 156.8 198.4 156.8 332.8zM512 6.399999999999977c-204.8 0-371.2 166.4-371.2 371.2S307.2 748.8 512 748.8s371.2-166.4 371.2-371.2S716.8 6.399999999999977 512 6.399999999999977zM208 800c-9.6 9.6-25.6 9.6-35.2 0L54.4 681.6c-9.6-9.6-9.6-25.6 0-35.2 9.6-9.6 25.6-9.6 35.2 0L208 764.8c9.6 9.6 9.6 25.6 0 35.2zM969.6 684.8L851.2 800c-9.6 9.6-25.6 9.6-35.2 0-9.6-9.6-9.6-25.6 0-35.2l118.4-115.2c9.6-9.6 25.6-9.6 35.2 0 9.6 9.6 9.6 25.6 0 35.2zM707.2 595.2l-144-128s0-3.2-3.2-3.2c-12.8 3.2-22.4 6.4-35.2 6.4-12.8 0-22.4-3.2-32-6.4 0 3.2-3.2 3.2-3.2 6.4l-92.8 83.2c-9.6 9.6-25.6 9.6-35.2-3.2-9.6-9.6-9.6-25.6 3.2-35.2l89.6-80c-16-19.2-28.8-41.6-28.8-70.4 0-54.4 44.8-102.4 102.4-102.4 54.4 0 102.4 44.8 102.4 102.4 0 25.6-9.6 48-25.6 67.2l140.8 124.8c9.6 9.6 9.6 25.6 3.2 35.2-16 9.6-32 9.6-41.6 3.2zM524.8 313.6c-28.8 0-51.2 22.4-51.2 51.2 0 28.8 22.4 51.2 51.2 51.2 28.8 0 51.2-22.4 51.2-51.2 0-25.6-22.4-51.2-51.2-51.2z"  horiz-adv-x="1024" />

    
    <glyph glyph-name="order-b" unicode="&#47252;" d="M84.7552 834v-900h1050v900h-1050zM1069.13066667-1.7141333299999815h-918.74986667v771.42826666h918.74986667v-771.42826666zM544.128 384.00106667h-65.62453333v-64.28586667h-65.62453334v-64.28373333h-65.62453333v64.28373333h65.62453333v64.28586667h65.62453334v64.28586666h-65.62453334v64.28586667h-65.62453333v64.28586667h65.62453333v-64.28586667h65.62453334v-64.28586667h65.62453333v-64.28586666zM806.6304 255.43039999999996h-196.8736v64.28373333h196.8736v-64.28373333z"  horiz-adv-x="1195" />

    
    <glyph glyph-name="healthy-c" unicode="&#47260;" d="M324.993024 396.39722667L106.266624 396.39722667c-28.01664 45.96258133-41.76827733 101.53710933-34.77777067 160.77073066 13.80625067 117.10190933 110.067712 210.25041067 227.540992 220.430336 87.17380267 7.55848533 166.100992-29.33828267 216.67293867-90.52706133 45.66766933 55.25777067 114.44770133 90.701824 191.52896 91.49917867 133.91189333 1.38717867 247.431168-105.16343467 254.148608-238.92241067 2.77435733-55.21408-12.40814933-106.61614933-40.05341867-149.225472L612.09531733 390.422528c-7.67863467 0-14.52714667-4.849664-17.072128-12.10231467l-25.100288-71.44516266L375.08437333 540.696576c-10.83528533 12.99797333-32.00341333 5.341184-32.00341333-11.58894933l0-114.622464C343.09188267 404.50184533 334.987264 396.39722667 324.993024 396.39722667zM569.15831467 222.50837333000004L397.705216 428.24772267l0-68.36497067c0-9.99424-8.10461867-18.09885867-18.09885867-18.09885867L151.13693867 341.78389332999996c1.46363733-1.343488 2.883584-2.74158933 4.37998933-4.05230933l360.17493333-360.17493333 358.252544 358.252544L650.79432533 335.80919467c-7.67863467 0-14.52714667-4.849664-17.072128-12.10231467l-33.59812266-95.617024C595.47101867 214.84066133 578.14766933 211.71677867000005 569.15831467 222.50837333000004z"  horiz-adv-x="1024" />

    
    <glyph glyph-name="crm-a" unicode="&#47134;" d="M917.0376275708181 474.49298966903854h-123.37258065508647V609.4144503781583h139.29285512249413c31.993260785839084 0 55.110109949873724-6.318478122102533 68.6824299365071-18.82181097453213 13.362340370986203-12.293353236782423 19.81444188486421-27.660045081120188 19.81444188486421-47.01634902603473a67.95704580972595 67.95704580972595 0 0 0-10.518071031765428-36.86097065437935c-6.776615465332723-10.899852151123921-16.512035202413248-18.650009470820805-29.8361974614636-23.689520843072383-14.813108624548477-5.650361163225171-36.3646551992133-8.532808614381791-64.06287779554988-8.532809211101267z m96.32338596165934-79.02869946456123c30.466136308405105 9.544529177401273 54.766506942451095 24.185836298238424 72.51933078277946 43.71394294030324 25.75113888760825 28.347251095965476 38.78896530713973 63.4711170605442 38.78896530713973 104.37896817684302 0 31.401500050833427-7.750157319696882 60.55049149745173-23.078671052098798 86.66432244845056-15.729383907728337 26.74376979794033-37.22366271776991 45.77556038811964-63.852898179902695 56.465432923596396-25.38844682421768 10.19355708031071-60.55049149745173 15.156711631971117-107.50957395230215 15.156712228690598H692.4930401414999v-550.6429627522266h101.17200677423172V379.9448865091158h58.39342757635677c19.432660765505716 0 28.48087448774094-1.10716524613963 32.184151942237804-1.908905596792465 8.131938439055373-2.061618044535862 16.378411810637772-5.822162666936492 24.472172137757298-11.262544214514492 5.574004939353473-3.7223665104647807 15.156711631971117-12.007017397263551 29.053545570059214-30.37069102856548 12.045195509199399-15.939363523375505 27.660045081120188-39.342547930209555 46.3864107758127-69.54143805178319l70.85858291356999-115.67969050329344h124.34612250945062l-103.02364520312042 167.3728594349086c-17.867358176135898 28.519052599676805-37.14730649389822 52.70488889791521-57.45806383392848 72.06119343954926a91.7611009886059 91.7611009886059 0 0 1-5.459470603545924 4.829531159884937z m-468.0446092249441-42.263174090021494c-8.208294662927074-39.247102650369925-23.689520843072383-68.93058766409013-46.02371811570265-88.2487140937883-22.37237598128558-19.318126429698168-49.15432389116175-28.690854103388126-81.83479128856561-28.690854103388126-27.106461861330892 0-51.597723055056115 7.062951304851595-74.90546277877003 21.551546574664826-22.773246156612 14.202258833574884-39.13256831456237 35.25748995307367-50.14695480149385 64.46374797087628-11.472523830161663 30.50431442034096-17.29468649709816 67.02168206729766-17.29468649709816 108.46402675069841 0 31.93599361793531 4.9440660924119575 63.356582724736654 14.698574288740932 93.44093791378324 9.296371449818253 28.65267599145227 24.89213136905164 50.77689364843536 47.66537752566363 67.65162151095866 22.37237598128558 16.588391426284947 51.00596232005046 24.968487592923335 85.06084174714486 24.968487592923335 29.378060118233414 0 52.819423233722794-7.177485640659139 71.66032326422282-21.876060526119545 18.859989086467976-14.736752400676778 33.67309830773592-39.342547930209555 44.03845629503849-73.09200246181717l4.90588798047611-16.015719747247207 98.76678512555374 24.147658186302575-4.9440660924119575 17.657378560488723c-14.316793169382436 51.10140759989007-40.20155604548563 91.49385420505494-76.96708082330588 119.93655058086006C523.0967407739919 696.1551296472002 477.2830022739363 710.6819024322298 423.871818305208 710.6819024322298c-46.67274661533155 0-90.1385312313323-11.262544214514492-129.09929804218336-33.46311869208876-39.41890415408125-22.410554093221428-70.13319819006936-55.54915823713599-91.41749798118327-98.55680550990655C182.47159326277324 536.4369822521487 171.89625506310404 486.57636329017373 171.89625506310404 430.41635526206414c0-51.273209103601395 9.277282393850326-100.00757376346886 27.564599801280572-144.82868194991173 18.745454750660432-45.98554060048627 46.71092472726741-81.72025635603859 82.99922310588953-106.23060660573175 36.3646551992133-24.510350249693147 83.61007349358262-36.937326878251035 140.41910942460163-36.937326878251035 55.644603516975614 0 103.5581387702223 16.18752125095853 142.4043712452658 48.123514868893835 38.59807474746049 31.745103058256063 65.62818098163915 78.01697949826122 80.2694886991958 137.55575043269346l4.161414201007574 17.008350657579285-100.65660166637825 26.381077734549763-3.76054462240063-18.287317407430233zM1580.1342291743213 701.8436689223611l-122.8380870879846-370.6331470731129c-3.3787635030421366-10.19355708031071-6.47119056984593-19.680818493088736-9.296370853098779-28.48087448774094l-7.0247731929157435 22.047862029830867L1319.5495010939633 701.8436689223611h-129.51925727347768v-550.6429627522266h98.8431413494254V496.1590705795109l112.87359867928899-344.95836440937643h84.88904024343356l113.6562505706934 339.8424968132531v-339.8424968132531h98.80496323748956V701.8436689223611h-118.9057415585921z"  horiz-adv-x="2560" />

    
    <glyph glyph-name="message" unicode="&#46702;" d="M509.44 66.048H438.272L242.176-40.960000000000036v196.096C144.384 223.74400000000003 81.92 322.048 81.92 439.808 81.92 646.656 273.408 814.08 509.44 814.08S936.96 646.656 936.96 439.808c0-206.336-191.488-373.76-427.52-373.76z m0 694.784c-206.336 0-374.272-143.36-374.272-320.512 0-108.544 64-209.408 160.256-267.264v-118.784l142.336 65.536h71.168c206.336 0 374.272 143.36 374.272 320.512 0.512 176.64-167.424 320.512-373.76 320.512z m214.016-374.272c-29.696 0-53.248 24.064-53.248 53.248 0 29.696 24.064 53.248 53.248 53.248 29.696 0 53.248-24.064 53.248-53.248s-24.064-53.248-53.248-53.248z m-214.016 0c-29.696 0-53.248 24.064-53.248 53.248 0 29.696 24.064 53.248 53.248 53.248 29.696 0 53.248-24.064 53.248-53.248s-23.552-53.248-53.248-53.248z m-214.016 0c-29.696 0-53.248 24.064-53.248 53.248S266.24 493.568 295.424 493.568c29.696 0 53.248-24.064 53.248-53.248s-23.552-53.76-53.248-53.76z"  horiz-adv-x="1024" />

    
    <glyph glyph-name="vip" unicode="&#58926;" d="M77.824 449.024L317.44 734.72h387.584l239.616-285.696-433.152-478.72-433.664 478.72zM699.904 724.48l230.4-274.944-419.328-463.872-419.328 463.36 230.4 274.944h377.856m9.728 31.744H312.32l-258.56-307.2 457.216-504.32 457.216 504.32-258.56 307.2zM758.784 384.512h-8.704c-12.8 0-11.776-2.56-17.92-9.728-44.544-58.88-221.184-291.328-221.184-291.328 0 0.512 0 0.512-0.512 1.024v-1.024s-177.152 232.448-221.184 291.328c-6.144 7.168-5.12 9.728-17.92 9.728h-8.704c-5.12 0-8.704 4.096-8.704 9.728v48.128c0 5.12 4.096 9.728 8.704 9.728h88.576c5.12 0 11.776-0.512 17.92-9.728l141.824-195.072v-0.512s0 0.512 0.512 0.512l141.312 195.072c5.632 8.704 12.8 9.728 17.92 9.728h88.576c4.608 0 8.704-4.096 8.704-9.728V394.24c-0.512-5.632-4.096-9.728-9.216-9.728z"  horiz-adv-x="1024" />

    
    <glyph glyph-name="right" unicode="&#47226;" d="M949.91240234 646.74638672l-58.39541015 58.3875c-16.11826172 16.11826172-42.26044922 16.11826172-58.3875 0L395.22763672 267.22324218999995 190.87226563 471.58476563c-16.12617188 16.12617188-42.26923828 16.12617188-58.39541016-1e-8L74.08935547 413.19726563c-16.11826172-16.12617188-16.11826172-42.26923828 0-58.38750001l291.93574219-291.94365234c16.13496094-16.11826172 42.26923828-16.11826172 58.39541015 0l525.49189453 525.49189453c16.11826172 16.11914063 16.11826172 42.27011719 0 58.38837891z"  horiz-adv-x="1024" />

    
    <glyph glyph-name="forbid-a" unicode="&#47026;" d="M510.95 832.5c-247.61 0-448.27-200.65-448.27-448.26-0-247.44 200.66-448.24 448.27-448.24 247.44 0 448.27 200.83 448.27 448.27-0.010 247.58-200.83 448.23-448.27 448.23zM510.95 7.97c-0.101-0-0.221-0-0.34-0-207.731 0-376.13 168.399-376.13 376.13 0 91.514 32.682 175.394 87.012 240.606l529.249-530.366c-64.369-53.723-147.98-86.34-239.21-86.34-0.204 0-0.408 0-0.612 0zM801.59 145.33l-529.59 529.61c64.469 53.377 148.012 85.76 239.119 85.76 207.792 0 376.24-168.448 376.24-376.24 0-91.112-32.386-174.659-86.275-239.759z"  horiz-adv-x="1024" />

    
    <glyph glyph-name="consumption" unicode="&#46651;" d="M505.296008 896c-277.849038 0-505.180069-227.331031-505.180069-505.180069s227.331031-505.180069 505.180069-505.180069 505.180069 227.331031 505.180069 505.180069-227.331031 505.180069-505.180069 505.180069z m6.567341-959.842131c-252.590035 0-454.662062 202.072028-454.662062 454.662062s202.072028 454.662062 454.662062 454.662062 448.094721-202.072028 448.094721-454.662062-202.072028-454.662062-448.094721-454.662062zM674.026151 407.996053a33.847065 33.847065 0 0 1 0 67.69413h-86.890972l86.890972 86.890971c13.134682 13.134682 13.134682 34.352245 0 47.486927a33.543957 33.543957 0 0 1-47.486927 0L502.770108 486.804144 379.000991 610.068081a33.543957 33.543957 0 0 1-47.486927 0 33.543957 33.543957 0 0 1 0-47.486927l86.890972-86.890971H337.071045a33.847065 33.847065 0 0 1 0-67.69413h134.883078v-67.188949H337.071045a33.847065 33.847065 0 0 1 0-67.694129h134.883078v-78.302911a33.847065 33.847065 0 0 1 67.69413 0v78.302911h134.883078a33.847065 33.847065 0 0 1 0 67.694129H539.143073V407.996053h134.883078z"  horiz-adv-x="1024" />

    
    <glyph glyph-name="notice-a" unicode="&#46946;" d="M506.875283 784.558885c-50.443879-42.654472-148.308791-122.107035-197.553355-154.718781-20.266579-13.422707-40.018436-21.575388-87.296205-21.575387H110.682845c-21.197788 0-45.9004-8.192589-45.900399-44.907793v-357.440855c0-45.508473 30.317493-45.183062 44.849464-45.183062h112.394836c47.276746 0 58.84113-3.539616 85.921905-20.890796 54.052057-34.627658 152.265916-117.54616 203.029066-157.455101 16.999163-13.365402 46.088688-5.305843 46.088688 21.647019V762.079918c0 39.220257-34.401508 35.83209-50.191122 22.478967z m277.064246-64.188928l-25.485441-67.350944c93.968162-77.302597 134.25982-190.130292 134.25982-268.520663 0-72.692602-38.498826-182.38898-134.25982-268.518616l25.485441-67.350944c106.352213 74.936713 175.904289 197.282179 175.904289 335.87263 0 138.586358-69.552076 260.931824-175.904289 335.868537zM669.428495 564.4764210000001l-22.856567-68.093864c51.305503-25.726941 67.12991-66.358337 67.12991-111.886253 0-42.658565-15.824407-86.158289-67.12991-111.883184l22.856567-68.088748c65.993017 33.064047 111.403253 101.135398 111.403253 179.975001 0.001023 78.837556-45.410236 146.911978-111.403253 179.977048z"  horiz-adv-x="1024" />

    
    <glyph glyph-name="vip1" unicode="&#46613;" d="M510.5 387.7m-449.3 0a449.3 449.3 0 1 1 898.6 0 449.3 449.3 0 1 1-898.6 0ZM768.8 426c-35.1-41-140.7-158.3-224.3-254.9-12.2-14.1-19.7-14.3-24.9-14.3-5.3 0-12.8 0.5-24.9 14.3-84.3 97.5-194.1 219.2-224.6 254.9-8.5 8.7-8.3 23.4 0 35.9 18.7 22.4 84.3 96.8 109.1 125.6 18.4 21.5 34.5 18 41 18h199c23.9 0 29.6-5.3 40.6-18 36.4-41.9 72.8-83.7 109.1-125.6 9.1-13.1 6.3-25.5-0.1-35.9zM790.5 476.6c-12.6 14.4-90.6 106.5-120.3 138.6-9.2 9.9-16 16.8-30.1 17.3-14.1 0.5-240.7 0-240.7 0-7.7 0-17.7-1.8-30.5-16.8-29.9-35-97.2-112.1-119.9-139.1-15.4-17.8-17.3-43.2 0-69.3 36.9-43 138.6-159.6 240.7-277.1 14.5-16.7 23.6-17.3 30.1-17.3 6.3 0 15.3 0.3 30.1 17.3C650.9 246.70000000000005 748 358 790.4 407.4c14.4 17.3 17.1 48.7 0.1 69.2z m-30.1-51.9c-33.9-39.5-135.8-152.7-216.5-246-11.8-13.6-19-13.8-24-13.8-5.1 0-12.4 0.5-24 13.8-81.5 94.1-187.4 211.6-216.8 246-8.2 8.4-8 22.5 0 34.6 18.1 21.6 81.3 93.4 105.2 121.2 17.7 20.7 33.3 17.3 39.5 17.3h192c23.1 0 28.5-5.1 39.2-17.3l105.3-121.2c8.9-12.6 6.3-24.6 0.1-34.6zM678.9 463.2h-57c-3.1 0-7.7-0.5-11.4-6.3l-91.1-128.5c-0.1-0.1-0.1-0.3-0.2-0.4v0.5l-91.3 128.4c-3.8 5.9-8.3 6.3-11.4 6.3h-57c-3.1 0-5.7-2.8-5.7-6.3v-31.6c0-3.5 2.5-6.3 5.7-6.3h5.5c8.2 0 7.6-1.5 11.6-6.3C405.1 373.9 519.2 221 519.2 221v0.7c0.1-0.2 0.1-0.5 0.2-0.7 0 0 113.9 153 142.5 191.7 3.9 4.8 3.4 6.3 11.5 6.3h5.5c3.1 0 5.7 2.9 5.7 6.3v31.6c-0.1 3.5-2.6 6.3-5.7 6.3z"  horiz-adv-x="1024" />

    
    <glyph glyph-name="upload-a" unicode="&#48226;" d="M528.0927288888889 650.9579377777777c-10.141013333333333 10.492586666666666-28.818773333333336 10.493724444444444-38.960924444444444 0l-329.74961777777776-341.90449777777775c-13.729564444444444-14.235875555555557-2.0400355555555554-35.90371555555556 19.48103111111111-35.90485333333333h213.00451555555554v-310.99904c0-10.798648888888888 8.731306666666667-19.580017777777776 19.463964444444443-19.580017777777776h197.01191111111112c10.73607111111111 0 19.463964444444443 8.779093333333332 19.463964444444443 19.580017777777776v311.00131555555555h210.54805333333334c21.521066666666666 0 33.20945777777778 21.66670222222222 19.48103111111111 35.90485333333333l-329.74961777777776 341.9022222222222zM176.92672000000005 741.6445155555556h663.3710933333334c12.99000888888889 0 23.45984 8.713102222222224 23.45984 19.51744v49.74819555555555c0 10.759964444444446-10.46983111111111 19.51744-23.45984 19.51744h-663.3710933333334c-12.930844444444444 0-23.45984-8.758613333333333-23.45984-19.51744v-49.74819555555555c0.001137777777777778-10.807751111111111 10.527857777777777-19.51744 23.45984-19.51744z"  horiz-adv-x="1024" />

    
    <glyph glyph-name="weibiaoti-_fuzhi-" unicode="&#46623;" d="M512 834C264.5 834 62 631.5 62 384s202.49999999999997-450 450-450 450 202.49999999999997 450 450S759.5 834 512 834z m0-867.8863634765626C282.172726953125-33.886363476562565 94.13409130859378 154.19318173828128 94.13409130859378 384 94.13409130859378 613.7863634765625 282.172726953125 801.8454547851562 512 801.8454547851562c229.80681826171875 0 417.8454547851562-188.05909130859376 417.8454547851562-417.8454547851562 0-229.827273046875-188.03863652343748-417.8863634765625-417.8454547851562-417.8863634765625z m-91.6363634765625 499.84772695312495L340.0590913085938 384l81.9613634765625-81.98181826171876c43.38409130859375 45 43.38409130859375 118.94318173828124-1.6159095703125 163.922726953125z m81.98181826171876 80.3659095703125l-40.17272783203125-40.19318173828125c67.5-67.5 67.5-176.7886365234375 0-244.3090913085937l40.17272783203125-40.172726953125c90 90 90 234.65454521484378 0 324.675z m80.36590869140626 81.94090869140626l-40.19318173828125-40.152273046875c112.5-112.5 112.5-294.1363634765625 0-406.6363634765625l40.19318173828125-40.172726953125c135 133.38409130859378 135 351.9613634765625 0 486.96136347656244z"  horiz-adv-x="1024" />

    
    <glyph glyph-name="position-d" unicode="&#47621;" d="M511.7 626.7c46.2 0 83.9-37.6 83.9-83.9s-37.6-83.9-83.9-83.9c-46.2 0-83.9 37.6-83.9 83.9s37.6 83.9 83.9 83.9m0 55.9c-77.2 0-139.8-62.6-139.8-139.8S434.5 403 511.7 403s139.8 62.6 139.8 139.8-62.6 139.8-139.8 139.8zM511.7-63.799999999999955c-251 0-447.7 98.4-447.7 224 0 47.9 27.9 93.1 80.8 130.6 17 12.1 36.6 23.3 58.3 33.4 14 6.6 30.6 0.5 37.2-13.5 6.5-14 0.5-30.6-13.5-37.2-18.6-8.7-35.3-18.2-49.6-28.3-26.1-18.5-57.2-48.3-57.2-84.9 0-79.5 160.9-168 391.8-168s391.8 88.6 391.8 168c0 36.8-31.3 66.6-57.5 85.1-14 9.9-30.3 19.2-48.5 27.8-14 6.6-20 23.2-13.4 37.2 6.6 14 23.2 20 37.2 13.4 21.1-9.9 40.3-20.9 57-32.7 53.1-37.5 81.2-82.8 81.2-130.8-0.2-125.7-196.9-224.1-447.9-224.1zM511.7 775.8c123.3 0 223.7-100.3 223.7-223.7 0-69.3-87-235.3-223.7-428C375.1 316.79999999999995 288 482.9 288 552.1c0 123.4 100.4 223.7 223.7 223.7m0 55.9c-154.4 0-279.6-125.2-279.6-279.6 0-126.4 187.4-396.4 255.4-490.2 6-8.3 15.1-12.4 24.2-12.4s18.2 4.1 24.2 12.4c68 93.8 255.4 363.8 255.4 490.2 0 154.4-125.2 279.6-279.6 279.6z"  horiz-adv-x="1024" />

    
    <glyph glyph-name="pass-a" unicode="&#46667;" d="M512-66C262.76923056640624-66 62 134.76923056640624 62 384S262.76923056640624 834 512 834s450-200.76923056640624 450-450-200.76923056640624-450-450-450z m0 848.0769231445313C293.9230768554687 782.0769231445312 113.92307685546882 602.0769231445313 113.92307685546882 384S293.9230768554687-14.076923144531179 512-14.076923144531179 910.0769231445312 165.92307685546882 910.0769231445312 384 730.0769231445312 782.0769231445312 512 782.0769231445312zM439.307692578125 207.46153886718753c-6.923076855468749 0-13.846153710937498 3.4615388671875-17.307692578125 6.923076855468749L269.69230742187494 366.69230742187494c-3.4615388671875 3.4615388671875-6.923076855468749 10.38461572265625-6.923076855468749 17.307692578125s3.4615388671875 13.846153710937498 6.923076855468749 17.307692578125c3.4615388671875 3.4615388671875 10.38461572265625 6.923076855468749 17.307692578125 6.923076855468749s13.846153710937498-3.4615388671875 17.307692578125-6.923076855468749l131.53846113281253-131.53846201171874 273.4615388671875 273.4615388671875c3.4615388671875 3.4615388671875 10.38461572265625 6.923076855468749 17.307691699218747 6.923076855468749s13.846153710937498-3.4615388671875 17.307692578125-6.923076855468749 6.923076855468749-10.38461572265625 6.923076855468749-17.307692578125-3.4615388671875-13.846153710937498-6.923076855468749-17.307692578125l-290.76923056640624-290.76923056640624c0-6.923076855468749-6.923076855468749-10.38461572265625-13.846153710937498-10.38461484375z"  horiz-adv-x="1024" />

    
    <glyph glyph-name="suspend-a" unicode="&#47114;" d="M907.5078125 71.75699037551885a83.2648028755188 83.2648028755188 0 0 0-83.2648028755188-83.2648028755188H199.7569903755188a83.2648028755188 83.2648028755188 0 0 0-83.2648028755188 83.2648028755188V696.2430096244811a83.2648028755188 83.2648028755188 0 0 0 83.2648028755188 83.2648028755188h624.4860192489624a83.2648028755188 83.2648028755188 0 0 0 83.2648028755188-83.2648028755188v-624.4860192489624z"  horiz-adv-x="1024" />

    
    <glyph glyph-name="order-a" unicode="&#47115;" d="M286.9997890625 777.7500703125h-55.91242968750001A112.387359375 112.387359375 0 0 1 118.25 665.7002100585937v-619.6492248046875A112.49985937500001 112.49985937500001 0 0 1 231.08735937499995-65.998875h561.824296875A112.387359375 112.387359375 0 0 1 905.7490156249999 46.05098525390622V665.7002100585937A112.49985937500001 112.49985937500001 0 0 1 792.9116562500001 777.7500703125H736.9992265624999c0-62.15617265624999-49.89368759765625-112.49985937500001-112.387359375-112.49985937500001H399.38714843750006A112.16235937500001 112.16235937500001 0 0 0 286.9997890625 777.7500703125z m0-253.12468359375c0 15.5249806640625 12.9374841796875 28.124964843750003 28.124964843750003 28.124964843750003h393.74950781250004c15.5249806640625 0 28.124964843750003-13.04998330078125 28.124964843750003-28.124964843750003 0-15.5249806640625-12.9374841796875-28.124964843750003-28.124964843750003-28.124964843750003h-393.74950781250004a28.406214843750003 28.406214843750003 0 0 0-28.124964843750003 28.124964843750003z m0-168.74978906249999c0 15.5249806640625 12.9374841796875 28.124964843750003 28.124964843750003 28.124964843750003h393.74950781250004c15.5249806640625 0 28.124964843750003-13.04998330078125 28.124964843750003-28.124964843750003 0-15.5249806640625-12.9374841796875-28.124964843750003-28.124964843750003-28.124964843750003h-393.74950781250004a28.406214843750003 28.406214843750003 0 0 0-28.124964843750003 28.124964843750003z m0-168.74978906249999c0 15.5249806640625 12.9374841796875 28.124964843750003 28.124964843750003 28.124964843750003h393.74950781250004c15.5249806640625 0 28.124964843750003-13.04998330078125 28.124964843750003-28.124964843750003 0-15.5249806640625-12.9374841796875-28.124964843750003-28.124964843750003-28.124964843750003h-393.74950781250004a28.406214843750003 28.406214843750003 0 0 0-28.124964843750003 28.124964843750003zM343.24971875000006 777.7500703125a56.24992968750001 56.24992968750001 0 0 0 55.68743056640625 56.24992968750001h226.1247169921875c30.712461328125002 0 55.68743056640625-24.974968359375 55.68743056640625-56.24992968750001a56.24992968750001 56.24992968750001 0 0 0-55.68743056640625-56.24992968750001H398.93714931640625A55.85618056640625 55.85618056640625 0 0 0 343.24971875000006 777.7500703125z"  horiz-adv-x="1024" />

    
    <glyph glyph-name="script-a" unicode="&#46893;" d="M301.001 502.595c-3.334 11.616-12.532 17.106-20.535 12.262l-195.168-118.028c-12.768-7.724-12.916-33.888-0.235-41.908l194.758-123.229c7.951-5.027 17.201 0.245 20.666 11.782 3.465 11.538-0.166 24.96-8.116 29.987l-161.001 101.865 161.175 97.475c8.002 4.844 11.791 18.188 8.457 29.795zM939.584 396.829l-177.46 118.036c-7.279 4.844-15.639-0.646-18.668-12.262-3.028-11.616 0.411-24.952 7.688-29.795l146.548-97.484-146.4-101.873c-7.226-5.027-10.534-18.458-7.383-29.987 3.151-11.538 11.564-16.808 18.789-11.782l177.085 123.229c11.538 8.029 11.407 34.193-0.201 41.918zM589.629 686.609c-1.871 0.554-4.022 0.874-6.248 0.874-10.357 0-19.102-6.913-21.866-16.378l-160.028-561.569c-0.554-1.871-0.873-4.020-0.873-6.245 0-12.582 10.2-22.782 22.782-22.782 10.358 0 19.103 6.913 21.869 16.377l160.028 561.577c0.554 1.871 0.873 4.021 0.873 6.245 0 10.357-6.914 19.098-16.378 21.86z"  horiz-adv-x="1024" />

    
    <glyph glyph-name="switch-a" unicode="&#46896;" d="M511.992 820.591c-240.585 0-436.355-195.848-436.355-436.599 0-240.725 195.771-436.582 436.355-436.582 240.62 0 436.373 195.858 436.373 436.582 0 240.751-195.753 436.599-436.373 436.599zM511.992 8.247c-172.233 0-317.742 116.596-361.851 275.032h163.811c11.875-29.473 40.235-49.898 73.364-49.902 43.537 0 78.857 35.337 78.857 78.912 0 0.038 0 0.082 0 0.126 0 20.398-7.766 38.981-20.504 52.956l156.893 175.434c3.181 3.658 5.121 8.47 5.121 13.734 0 6.276-2.755 11.907-7.122 15.752-3.676 3.226-8.495 5.183-13.77 5.183-6.269 0-11.894-2.763-15.722-7.137l-161.205-180.417c-6.738 2.082-14.484 3.281-22.51 3.281-0.014 0-0.029 0-0.043 0-38.275 0-70.174-27.281-77.347-63.473h-169.318c-2.678 16.891-4.207 36.367-4.207 56.2 0 0.025 0 0.052 0 0.077 0 207.19 168.462 375.766 375.552 375.766s375.569-168.585 375.569-375.771c0-19.121-1.44-37.912-4.207-56.273h-207.011c-0.013 0-0.028 0-0.044 0-10.914 0-19.762-8.845-19.767-19.758v-2.819c0-12.454 8.858-22.568 19.811-22.568h197.315c-44.343-158.086-189.687-274.333-361.667-274.333z"  horiz-adv-x="1024" />

    
    <glyph glyph-name="man-a" unicode="&#46897;" d="M948.364 43.087c0-15.062-12.21-27.273-27.273-27.273-15.062 0-27.273 12.21-27.273 27.273 0 129.443-90.406 237.251-211.366 265.169v1.353c-16.163 5.001-28.119 19.506-28.119 37.309 0 19.401 14.199 34.795 32.614 38.217 57.347 25.432 97.78 82.088 97.78 148.861 0 90.38-73.257 163.636-163.636 163.636v0.34c-14.226 0.925-25.562 12.472-25.562 26.933s11.337 25.999 25.562 26.933v0.34c0.384 0 0.751-0.113 1.134-0.113 0.201 0.008 0.367 0.113 0.567 0.113 0.602 0 1.108-0.306 1.702-0.34 118.892-1.868 214.778-98.505 214.778-217.841 0-78.528-41.856-146.793-104.116-185.219 124.268-46.42 213.207-165.225 213.207-305.691zM516.974 348.777c124.267-46.42 213.207-165.225 213.207-305.691 0-15.062-12.21-27.273-27.273-27.273-15.062 0-27.273 12.21-27.273 27.273 0 150.624-122.103 272.727-272.727 272.727s-272.727-122.103-272.727-272.727c0-15.062-12.21-27.273-27.273-27.273-15.062 0-27.273 12.21-27.273 27.273 0 140.466 88.94 259.269 213.207 305.691-62.26 38.426-104.116 106.691-104.116 185.227 0 120.498 97.685 218.182 218.182 218.182s218.182-97.685 218.182-218.182c0-78.537-41.856-146.801-104.116-185.227zM402.909 697.632c-90.38 0-163.636-73.257-163.636-163.636s73.257-163.636 163.636-163.636 163.636 73.257 163.636 163.636-73.266 163.636-163.636 163.636z"  horiz-adv-x="1024" />

    
    <glyph glyph-name="node-b" unicode="&#46898;" d="M820.020 306.991c-3.674 0-7.322-0.158-10.918-0.454l-55.182 118.281c48.288 41.184 78.947 102.485 78.947 170.949-0.008 124.041-100.582 224.596-224.614 224.596-124.058 0-224.596-100.555-224.596-224.605 0-0.103 0-0.225 0-0.347 0-47.028 14.519-90.665 39.318-126.672l-158.829-216.975c-10.351 2.474-22.236 3.892-34.451 3.892-0.014 0-0.027 0-0.041 0-85.062 0-154.017-68.954-154.017-154.011 0-85.056 68.954-154.011 154.019-154.011 85.039 0 153.993 68.954 153.993 154.011 0 0.044 0 0.097 0 0.148 0 46.699-20.828 88.533-53.702 116.72l141.751 198.928c37.293-28.872 84.729-46.281 136.232-46.281 0.113 0 0.228 0 0.341 0 30.344 0 59.319 6.048 85.736 16.983l49.614-106.333c-31.506-23.389-51.962-60.881-51.962-103.165 0-70.883 57.478-128.334 128.343-128.334 70.874 0 128.343 57.46 128.343 128.334 0.018 70.892-57.46 128.343-128.326 128.343zM229.655 0.995c-55.611 0-100.678 45.051-100.678 100.66 0 55.575 45.067 100.652 100.678 100.652 55.558 0 100.652-45.076 100.652-100.652 0-55.611-45.067-100.66-100.652-100.66zM435.959 595.759c0 94.918 77.132 171.866 172.294 171.866 95.136 0 172.267-76.948 172.267-171.866 0-94.909-77.132-171.848-172.267-171.848-95.162 0-172.294 76.931-172.294 171.848zM820.020 104.893c0 0 0 0 0 0-40.738 0-73.762 33.024-73.762 73.763 0 40.738 33.024 73.762 73.762 73.762 0 0 0 0 0 0 40.738-0.005 73.762-33.025 73.772-73.762-0.026-40.74-33.059-73.763-73.772-73.763z"  horiz-adv-x="1024" />

    
    <glyph glyph-name="wave-a" unicode="&#46899;" d="M817.359 152.727c14.933-9.582 15.054-25.379 0.375-35.206l-132.122-88.338c-14.679-9.827-26.749-3.107-26.749 15.054v56.858h-309.774c-73.029 0-141.705 29.481-193.335 82.857-51.631 53.489-80.116 124.529-80.116 200.047 0 54.615 15.054 107.738 43.662 153.399 9.207 14.801 28.364 19.034 42.668 9.452 14.304-9.582 18.414-29.359 9.207-44.168-22.141-35.328-33.835-76.512-33.835-118.813 0-120.803 95.048-219.212 211.741-219.212h309.774v56.492c0 18.161 12.192 25.134 27.125 15.674l131.38-84.096zM868.247 584.047c-51.631 53.498-120.306 82.857-193.335 82.857h-286.882v56.858c0 18.161-12.069 24.881-26.749 15.054l-132.122-88.328c-14.679-9.827-14.558-25.754 0.375-35.206l131.372-84.227c14.933-9.582 27.125-2.487 27.125 15.674v56.482h287.014c116.823 0 211.741-98.287 211.741-219.212 0-20.029-2.609-39.814-7.715-58.848-4.599-16.922 5.097-34.586 21.399-39.316 2.74-0.751 5.603-1.118 8.213-1.118 13.562 0 25.876 9.207 29.734 23.389 6.318 22.734 9.949 48.839 9.949 75.793 0 0.035 0 0.070 0 0.105 0 75.512-28.486 146.674-80.116 200.041z"  horiz-adv-x="1024" />

    
    <glyph glyph-name="pass-d" unicode="&#46900;" d="M783.532-52.328h-543.072c-90.86 0-164.823 73.928-164.823 164.823v542.976c0 90.894 73.964 164.858 164.823 164.858h366.345c16.056-0.010 29.069-13.023 29.079-29.078-0.010-16.057-13.023-29.070-29.078-29.080h-366.346c-58.813 0-106.665-47.842-106.665-106.665v-543.011c0-58.822 47.842-106.665 106.665-106.665h543.072c58.822 0 106.665 47.842 106.665 106.665v328.128c0.010 16.056 13.023 29.069 29.078 29.079 16.057-0.010 29.070-13.023 29.080-29.078v-328.129c0.035-90.894-73.928-164.823-164.823-164.823M783.532-52.328zM483.435 214.019l-190.080 235.706c-4.021 4.946-6.457 11.323-6.457 18.268 0 9.118 4.198 17.256 10.766 22.585 5 4.066 11.377 6.503 18.323 6.503 9.118 0 17.256-4.199 22.584-10.77l149.409-185.273 385.667 387.072c5.268 5.283 12.552 8.551 20.601 8.551 16.066 0 29.091-13.025 29.091-29.091 0-8.018-3.244-15.278-8.491-20.541l-431.415-433.012M483.435 214.019z"  horiz-adv-x="1024" />

    
    <glyph glyph-name="bill-d" unicode="&#46901;" d="M823.678 713.952h-93.521v48.428h-83.974c-26.993 37.143-76.678 62.313-134.252 62.313-57.556 0-107.258-25.239-134.252-62.313h-83.834v-47.354h-93.521c-68.875 0-124.687-55.802-124.687-124.687v-510.694c0-68.875 55.802-124.678 124.687-124.678h623.354c68.875 0 124.687 55.802 124.687 124.678v509.681c0 68.814-55.811 124.626-124.687 124.626zM346.278 712.844h73.693c0 37.396 41.236 64.486 92.099 64.486s92.099-30.309 92.099-67.706h73.693v-62.513h-331.584v65.734zM896.462 70.996c0-0.003 0-0.006 0-0.008 0-35.378-28.68-64.058-64.058-64.058-0.003 0-0.007 0-0.009 0h-640.721c-35.383 0-64.067 28.684-64.067 64.067 0 0 0 0 0 0v528.061c0 35.383 28.684 64.067 64.067 64.067 0 0 0 0 0 0h98.993v-63.744h439.741l0.715 62.671h101.262c0.003 0 0.006 0 0.008 0 35.378 0 64.058-28.68 64.058-64.058 0-0.003 0-0.007 0-0.009v-526.987h0.008zM720.075 482.068h-429.993c-0.008 0-0.017 0-0.026 0-14.209 0-25.728-11.519-25.728-25.728 0-0.009 0-0.019 0-0.027 0-0.007 0-0.016 0-0.024 0-14.209 11.519-25.728 25.728-25.728 0.009 0 0.019 0 0.027 0h429.991c0.007 0 0.017 0 0.026 0 14.209 0 25.728 11.519 25.728 25.728 0 0.009 0 0.019 0 0.027-0.035 14.208-11.544 25.718-25.751 25.753zM663.575 324.314h-376.364c-0.006 0-0.011 0-0.018 0-12.441 0-22.525-10.085-22.525-22.525 0-0.007 0-0.012 0-0.019 0-0.005 0-0.010 0-0.017 0-12.441 10.085-22.525 22.525-22.525 0.007 0 0.012 0 0.019 0h376.363c0.007 0 0.017 0 0.026 0 12.435 0 22.516 10.081 22.516 22.516 0 0.009 0 0.019 0 0.027-0.035 12.435-10.106 22.507-22.539 22.541zM663.575 158.165h-376.364c-0.006 0-0.011 0-0.018 0-12.441 0-22.525-10.085-22.525-22.525 0-0.007 0-0.012 0-0.019 0-0.005 0-0.010 0-0.017 0-12.441 10.085-22.525 22.525-22.525 0.007 0 0.012 0 0.019 0h376.363c0.007 0 0.017 0 0.026 0 12.435 0 22.516 10.081 22.516 22.516 0 0.009 0 0.019 0 0.027-0.030 12.437-10.104 22.511-22.539 22.541z"  horiz-adv-x="1024" />

    
    <glyph glyph-name="pen-b" unicode="&#46902;" d="M940.457 576.698l-204.707-322.848-14.775-22.613-29.489-45.233c-9.582-14.714-20.413-34.673-39.919-43.192l-219.945-128.841c-7.846-3.447-16.355-4.974-24.855-5.149v-0.34h-331.131v51.796h271.269l15.866 230.129c-1.361 19.192 12.541 37.58 22.133 52.285l29.498 45.225 219.439 345.469c16.312 24.978 52.399 33.539 80.614 19.113l204.393-104.474c28.233-14.4 37.885-46.351 21.608-71.328zM554.005 497.515l-118.011-180.934c-19.113-29.349-25.614-73.754-24.576-88.128l-20.308-124.782c0.942-13.047 9.155-24.786 21.949-31.331 6.42-3.291 14.006-5.219 22.043-5.219 7.073 0 13.796 1.493 19.873 4.182l111.622 77.845c14.601 6.38 54.842 33.906 73.798 62.967 18.965 29.062 29.498 45.242 29.498 45.242l88.512 135.7 43.069 68.998-204.454 104.405-43.017-68.946zM684.958 707.275l-59.956-96.026 204.436-104.405 59.904 95.974-204.384 104.457z"  horiz-adv-x="1024" />

    
    <glyph glyph-name="vip2" unicode="&#46793;" d="M997.542 613.3489999999999L775.608 810.624a62.724 62.724 0 0 1-41.674 15.844H290.066a62.73 62.73 0 0 1-41.674-15.844L26.458 613.3489999999999a62.728 62.728 0 0 1-21.054-46.884V448.1a62.727 62.727 0 0 1 18.374-44.357l443.867-443.841c12.248-12.247 28.301-18.371 44.354-18.371s32.106 6.124 44.354 18.371l443.867 443.841a62.732 62.732 0 0 1 18.374 44.357V566.466a62.72 62.72 0 0 1-21.052 46.883zM715.647 423.883l-181.02-181.019c-12.497-12.497-32.758-12.497-45.255 0L308.353 423.883c-12.497 12.497-12.497 32.758 0 45.255s32.758 12.497 45.255 0L512 310.746l158.392 158.392c12.497 12.497 32.758 12.497 45.255 0s12.497-32.758 0-45.255z"  horiz-adv-x="1024" />

    
    <glyph glyph-name="index-f" unicode="&#47261;" d="M191.7-7.7000000000000455c0-30.9-28.7-56.1-64-56.1s-64 25.1-64 56.1V216.5c0 30.9 28.7 56.1 64 56.1s64-25.1 64-56.1v-224.2zM447.8-7.7000000000000455c0-30.9-28.7-56.1-64-56.1s-64 25.1-64 56.1V552.8c0 30.9 28.7 56.1 64 56.1s64-25.1 64-56.1v-560.5zM703.9-7.7000000000000455c0-30.9-28.7-56.1-64-56.1s-64 25.1-64 56.1V440.7c0 30.9 28.7 56.1 64 56.1s64-25.1 64-56.1v-448.4zM960-7.7000000000000455c0-30.9-28.7-56.1-64-56.1s-64 25.1-64 56.1V777.1c0 30.9 28.7 56.1 64 56.1s64-25.1 64-56.1v-784.8z"  horiz-adv-x="1024" />

    
    <glyph glyph-name="factor-b" unicode="&#59108;" d="M843.875 175.875c-22.5 0-45-5.625-67.5-22.5l-129.375 129.375c16.875 28.125 33.75 67.5 33.75 101.25 0 50.625-22.5 101.25-61.875 129.375l45 84.375c11.25-5.625 22.5-5.625 39.375-5.625 67.5 0 118.125 56.25 118.125 118.125 0 67.5-56.25 118.125-118.125 118.125-67.5 0-118.125-56.25-118.125-118.125 0-33.75 16.875-67.5 39.375-90l-50.625-78.75C557 547.125 534.5 552.75 512 552.75c-39.375 0-73.125-16.875-101.25-33.75L348.875 580.875c5.625 11.25 11.25 22.5 11.25 39.375 0 45-39.375 84.375-84.375 84.375S197 665.25 197 620.25s39.375-84.375 84.375-84.375c16.875 0 28.125 5.625 39.375 11.25l61.875-61.875c-22.5-28.125-33.75-61.875-33.75-101.25 0-33.75 11.25-61.875 28.125-90l-118.125-101.25c-22.5 16.875-50.625 22.5-78.75 22.5C118.25 215.25 62 164.625 62 97.125c0-67.5 56.25-118.125 118.125-118.125 67.5 0 118.125 56.25 118.125 118.125 0 22.5-5.625 45-16.875 61.875L399.5 260.25c28.125-22.5 67.5-39.375 106.875-39.375s73.125 11.25 101.25 33.75l129.375-129.375c-11.25-16.875-22.5-45-22.5-67.5 0-67.5 56.25-118.125 118.125-118.125 67.5 0 118.125 56.25 118.125 118.125 11.25 61.875-45 118.125-106.875 118.125zM697.625 789c39.375 0 73.125-33.75 73.125-73.125 0-39.375-33.75-73.125-73.125-73.125-39.375 0-73.125 33.75-73.125 73.125 0 39.375 33.75 73.125 73.125 73.125zM180.125 24c-39.375 0-73.125 33.75-73.125 73.125 0 39.375 33.75 73.125 73.125 73.125 39.375 0 73.125-33.75 73.125-73.125 5.625-39.375-28.125-73.125-73.125-73.125z m663.75-45c-39.375 0-73.125 33.75-73.125 73.125 0 39.375 33.75 73.125 73.125 73.125 39.375 0 73.125-33.75 73.125-73.125 0-39.375-33.75-73.125-73.125-73.125z"  horiz-adv-x="1024" />

    
    <glyph glyph-name="Terminal-purchasing" unicode="&#46784;" d="M680.534826-25.262316000000055H343.465174c-50.754872 0-91.890876 42.261617-91.890876 94.449085V698.813231c0 52.187469 41.136005 94.449086 91.890876 94.449085H680.534826c50.754872 0 91.890876-42.261617 91.890876-94.449085V69.18676900000003c0-52.187469-41.136005-94.449086-91.890876-94.449085z m-176.925752 39.396422c2.660538-0.61397 5.525732-1.023284 8.390926-1.023284 2.865194 0 5.730389 0.409313 8.390926 1.023284 17.60048 3.990806 30.800839 20.056361 30.80084 39.294094 0 19.237734-13.20036 35.303288-30.80084 39.294094-2.660538 0.61397-5.525732 1.023284-8.390926 1.023284-2.865194 0-5.730389-0.409313-8.390926-1.023284-17.60048-3.990806-30.800839-20.056361-30.80084-39.294094 0-19.237734 13.20036-35.303288 30.80084-39.294094z m38.987109 747.713401h-61.192366c-8.493255 0-15.349256-7.060658-15.349255-15.758569s6.856001-15.758569 15.349255-15.758569h61.192366c8.493255 0 15.349256 7.060658 15.349255 15.758569s-6.856001 15.758569-15.349255 15.758569zM711.233337 683.15699c0 8.697911-6.856001 15.758569-15.349256 15.758569H328.115919c-8.493255 0-15.349256-7.060658-15.349256-15.758569v-535.279704c0-8.697911 6.856001-15.758569 15.349256-15.758569H695.884081c8.493255 0 15.349256 7.060658 15.349256 15.758569V683.15699z"  horiz-adv-x="1024" />

    
    <glyph glyph-name="node-c" unicode="&#47246;" d="M824.684 516.408c-59.505 0-109.753-41.303-124.355-97.213H353.751L526.06 592.05a126.167 126.167 0 0 1 74.004-23.87c70.948 0 128.712 58.64 128.712 130.786 0 72.151-57.759 130.785-128.712 130.785-70.953 0-128.717-58.634-128.717-130.785 0-19.727 4.362-38.472 12.099-55.255l-180.378-180.92c-23.434 32.476-61.25 53.621-103.757 53.621-70.953 0-128.716-58.634-128.716-130.785 0-72.146 57.763-130.785 128.716-130.785 43.05 0 81.193 21.58 104.628 54.717l181.683-182.23a131.4 131.4 0 0 1-14.167-59.51c0-72.146 57.764-130.78 128.711-130.78 70.953 0 128.717 58.634 128.717 130.78 0 72.15-57.759 130.79-128.717 130.79-25.938 0-50.027-7.849-70.292-21.253L355.599 352.05999999999995h344.73c14.607-55.905 64.85-97.213 124.355-97.213 70.952 0 128.716 58.64 128.716 130.785 0 72.146-57.758 130.775-128.716 130.775z"  horiz-adv-x="1024" />

    
    <glyph glyph-name="transformation-b" unicode="&#46758;" d="M674.69627656 470.74210898c-18.1193959 0-36.26879063-0.02999883-54.44818505-0.20999267-39.89866992 0-76.67744414 33.56888115-82.01726632 74.84750507-0.62997891 4.34985469-0.83997158 8.60971289-0.83997157 12.92956875L537.39085362 745.53294873c0 42.05859786 28.61904638 78.41738584 68.1277289 86.54711484 4.67984443 0.89997011 9.38968682 1.40995283 14.30952275 1.40995284 86.66711104 0 173.30422325 0 260.00133311-0.1199962 38.9986998 0 75.3874875-32.9988999 81.14729501-73.55754843 0.62997891-4.64984472 0.86997128-9.2396918 0.8699713-13.97953389l0.11999619-58.43805205c0.11999619-43.76854073 0.20999268-87.59707998-0.23999239-131.42561923-0.3899874-33.23889229-15.71947558-58.73804209-45.62847861-75.83747169-11.15962822-6.44978496-23.54921543-9.56968067-37.82873936-9.56968066L674.69627656 470.74210898zM634.82760547 776.43191924c-23.4892169 0-42.74857529-20.00933262-42.86857149-44.66851085-0.08999737-35.33882168 0-159.38468701 0-159.38468701 0-6.50978262 1.28995664-12.59957988 3.83987198-18.14939472 7.67974395-17.21942578 20.90930273-26.36912109 38.36872089-26.48911729 16.19946036-0.17999385 32.39891982-0.20999268 48.62837901-0.20999267l182.00393349 0.08999736c23.60921308 0.14999502 42.2385917 19.10936338 42.38858672 43.13856182 0.3899874 54.29819004 0.3899874 108.41638623 0 162.56458125-0.14999502 23.63921192-19.28935723 42.9885668-42.65857792 43.13856181l-114.8661712 0.08999737L634.82760547 776.43191924zM283.47931777-64.65004481999995c-47.18842734 0-94.34685498 0.14999502-141.53528232 0.3899874-20.57931386 0.05999766-39.26869102 8.90970293-55.58814668 26.33912226-16.10946299 17.21942578-24.32918935 38.09872969-24.32918936 61.97793399 0 0-0.05999766 144.86517158 0 186.17379434 0.14999502 41.93860166 27.71907627 77.54741543 67.01776611 86.51711601 4.31985586 1.01996631 8.96970059 1.55994786 13.70954268 1.55994785l204.05319785-0.08999736c19.01936602 0 38.06873086 0.05999766 57.14809541 0.23999238 39.35868838 0 75.20749277-32.03893213 81.65727774-72.98756718 1.01996631-6.41978614 1.07996396-13.07956377 1.07996396-18.74937481l0.05999766-76.79744033c-0.02999883-34.22885888-0.05999766-68.36772128 0.08999736-102.41658633 0.11999619-25.49914981-7.19976006-46.22845869-22.3792541-63.44788535-16.52944922-18.71937598-35.81880645-28.25905781-57.32808926-28.31905635C365.91656943-64.53004864000002 324.727942-64.65004481999995 283.47931777-64.65004481999995zM159.40345362 241.21975927999995c-24.56918086-0.14999502-42.50858291-19.16936104-42.62857911-45.23849209-0.23999239-33.3888873-0.20999268-66.77777373-0.17999384-100.19665987l0.05999765-57.95806816c0-25.46915098 19.22935869-45.38848711 43.76854072-45.38848711l228.08239718 0c6.17979375 0 12.23959219 1.31995635 18.05939823 3.95986816 17.27942432 8.2497252 25.73914219 22.52924912 25.73914219 43.52854922 0.11999619 51.238292 0.11999619 102.65657783 0 153.89486983 0 10.79963965-2.21992559 19.55934844-6.86977119 26.84910498-8.78970674 13.82953887-21.26929131 20.54931503-38.12872939 20.54931503-37.67874433 0.08999737-176.90410283 0.14999502-177.08409757 0.14999503C193.27232393 241.36975429999995 176.35288818 241.33975547 159.40345362 241.21975927999995zM99.01546631 537.96986778l54.68817744-1e-8c12.62957872 0 17.1294293 4.67984443 17.24942461 17.90940322C171.13306221 581.40841963 174.40295293 605.82760547 180.76274141 628.3868534200001c14.36952129 51.92826943 40.73864238 96.44678526 78.41738583 132.20559316 37.52874932 35.51881641 81.98726748 58.67804443 132.20559317 68.90770283 9.32968916 1.88993672 19.37935372 3.14989541 30.6289793 3.92986934L429.96443487 834l0.05999765-57.17809424-7.04976504-0.3899874c-20.00933262-1.01996631-39.50868339-5.60981338-61.43795245-14.36952129C338.04749815 752.49271729 316.05823144 738.15319482 296.16889414 719.43381885c-22.46925059-21.17929394-39.89866992-46.13846221-51.86827089-74.18752734C234.82093906 623.37702099 228.70114297 599.4078193400001 226.09122998 574.0286657199999c-0.62997891-6.86977119-0.89997011-13.70954268-0.89997011-20.48931738 0-10.31965576 4.76984092-15.32948906 14.54951513-15.32948907l64.16786075 0-102.83657169-106.58644716L99.01546631 537.96986778zM598.82880606-8.041931839999961l7.1397624 0.26999122c12.68957724 0.44998506 23.42921924 2.759908 37.70874316 6.56978115 28.88903672 7.67974395 55.43815166 21.68927666 78.92736944 41.63861162 36.20879297 30.56898076 60.65797763 69.11769638 72.77757451 114.53618233 5.66981104 21.53928164 8.36972138 40.76864121 8.21972636 58.76804091-0.11999619 11.57961357-5.15982832 16.94943545-15.83947177 17.06943076l-64.01786573 0 103.97653419 106.52644952 48.41838632-50.66831075 53.6382123-55.82813906-50.06833066 0c-18.26939092 0-21.2392916-1.55994786-21.86927138-22.76924063-1.58994667-60.53798232-20.6393124-115.8861375-56.72810918-164.60451299-25.01916592-33.86887119-56.60811299-60.747975-93.89686993-79.91733602-28.88903672-14.84950518-57.26809073-23.69921045-86.84710487-26.93910235l-5.39981984-0.38998741c-2.42991914-0.14999502-5.0098333-0.29999004-7.49975009-0.71997626L598.88880372-65.97000117000005 598.82880606-8.041931839999961z"  horiz-adv-x="1025" />

    
    <glyph glyph-name="timing-a" unicode="&#46627;" d="M972.8 384c0-256-204.8-460.8-460.8-460.8s-460.8 204.8-460.8 460.8c0-256 204.8-460.8 460.8-460.8s460.8 204.8 460.8 460.8M512 896C230.4 896 0 665.6 0 384s230.4-512 512-512 512 230.4 512 512S793.6 896 512 896z m0-921.6c-225.28 0-409.6 184.32-409.6 409.6s184.32 409.6 409.6 409.6 409.6-184.32 409.6-409.6-184.32-409.6-409.6-409.6zM512 691.2v-307.2 307.2m0 51.2c-30.72 0-51.2-20.48-51.2-51.2v-307.2c0-5.12 0-15.36 5.12-20.48 5.12-5.12 5.12-10.24 10.24-15.36l168.96-168.96c10.24-10.24 25.6-15.36 35.84-15.36s25.6 5.12 35.84 15.36c20.48 20.48 20.48 51.2 0 71.68l-153.6 153.6V691.2c0 30.72-20.48 51.2-51.2 51.2z"  horiz-adv-x="1024" />

    
    <glyph glyph-name="template-a" unicode="&#46626;" d="M204.8 588.8m-102.4 0a102.4 102.4 0 1 1 204.8 0 102.4 102.4 0 1 1-204.8 0ZM921.6 793.6H102.4C46.08 793.6 0 747.52 0 691.2v-614.4c0-56.32 46.08-102.4 102.4-102.4h819.2c56.32 0 102.4 46.08 102.4 102.4V691.2c0 56.32-46.08 102.4-102.4 102.4zM102.4 742.4h819.2c30.72 0 51.2-20.48 51.2-51.2v-353.28l-204.8 204.8-332.8-332.8L307.2 337.91999999999996l-256-256V691.2c0 30.72 20.48 51.2 51.2 51.2z"  horiz-adv-x="1024" />

    
    <glyph glyph-name="salesproduct-a" unicode="&#46594;" d="M926.72 798.72C921.6 855.04 880.64 896 824.32 896H199.68c-56.32 0-97.28-40.96-102.4-97.28l-40.96-819.2C51.2-76.79999999999995 102.4-128 158.72-128h706.56c56.32 0 107.52 51.2 102.4 107.52l-40.96 819.2z m-138.24-204.8c-20.48-133.12-138.24-235.52-276.48-235.52s-256 102.4-276.48 235.52C215.04 604.1600000000001 204.8 619.52 204.8 640c0 30.72 20.48 51.2 51.2 51.2s51.2-20.48 51.2-51.2c0-15.36-10.24-30.72-20.48-40.96C307.2 491.52 399.36 409.6 512 409.6s204.8 81.92 225.28 189.44c-10.24 10.24-20.48 25.6-20.48 40.96 0 30.72 20.48 51.2 51.2 51.2s51.2-20.48 51.2-51.2c0-20.48-10.24-35.84-30.72-46.08z"  horiz-adv-x="1024" />

    
    <glyph glyph-name="close-a" unicode="&#46595;" d="M512 836.4739208954732c-248.86065649251032 0-452.47392089547316-203.61326440296298-452.47392089547316-452.47392089547316s203.61326440296298-452.47392089547316 452.47392089547316-452.47392089547316 452.47392089547316 203.61326440296298 452.47392089547316 452.47392089547316-203.61326440296298 452.47392089547316-452.47392089547316 452.47392089547316z m203.61326440296298-550.5099370894923c30.16492805969821-30.16492805969821 30.16492805969821-75.41232014924555 0-105.57724820894374-15.082464029849104-15.082464029849104-30.16492805969821-22.623696044773666-52.78862410447187-22.623696044773666s-37.70616007462277 7.541232014924552-52.78862410447187 22.623696044773666L512 278.4227517910564l-98.03601619401918-98.03601619401918c-15.082464029849104-15.082464029849104-30.16492805969821-22.623696044773666-52.78862410447187-22.623696044773666s-37.70616007462277 7.541232014924552-52.78862410447187 22.623696044773666c-30.16492805969821 30.16492805969821-30.16492805969821 75.41232014924555 0 105.57724820894374L406.42275179105627 384 308.3867355970371 482.03601619401917c-30.16492805969821 30.16492805969821-30.16492805969821 75.41232014924555 0 105.57724820894374s75.41232014924555 30.16492805969821 105.57724820894374 0L512 489.57724820894373l98.03601619401918 98.03601619401918c30.16492805969821 30.16492805969821 75.41232014924555 30.16492805969821 105.57724820894374 0s30.16492805969821-75.41232014924555 0-105.57724820894374L617.5772482089436 384l98.03601619401918-98.03601619401918z"  horiz-adv-x="1024" />

    
    <glyph glyph-name="label-a" unicode="&#46596;" d="M819.2 307.20000000000005c0 20.48-5.12 35.84-20.48 51.2L409.6 742.4c-10.24 15.36-30.72 25.6-51.2 35.84-25.6 10.24-46.08 15.36-66.56 15.36H71.68c-20.48 0-35.84-10.24-51.2-20.48-15.36-15.36-20.48-30.72-20.48-51.2v-225.28c0-15.36 5.12-35.84 15.36-61.44 10.24-20.48 20.48-40.96 35.84-56.32l384-384c15.36-15.36 30.72-20.48 46.08-20.48s35.84 5.12 51.2 20.48l266.24 266.24c10.24 10.24 20.48 30.72 20.48 46.08M220.16 568.3199999999999c-10.24-10.24-30.72-15.36-46.08-15.36-20.48 0-35.84 5.12-51.2 15.36-10.24 15.36-20.48 30.72-20.48 51.2s10.24 35.84 20.48 46.08c15.36 15.36 30.72 20.48 51.2 20.48s35.84-5.12 46.08-20.48c15.36-10.24 20.48-25.6 20.48-46.08s-5.12-35.84-20.48-51.2m783.36-209.92L619.52 742.4c-15.36 15.36-30.72 25.6-56.32 35.84-20.48 10.24-46.08 15.36-61.44 15.36H378.88c20.48 0 40.96-5.12 61.44-15.36 25.6-10.24 40.96-20.48 56.32-35.84l384-384c15.36-15.36 20.48-30.72 20.48-51.2s-5.12-35.84-20.48-46.08l-250.88-256c10.24-10.24 20.48-20.48 30.72-25.6 10.24-5.12 20.48-5.12 30.72-5.12 20.48 0 35.84 5.12 51.2 20.48l266.24 266.24c15.36 15.36 20.48 30.72 20.48 46.08-5.12 20.48-10.24 35.84-25.6 51.2m0 0z"  horiz-adv-x="1029" />

    
    <glyph glyph-name="cache-a" unicode="&#46597;" d="M629.76 384h-112.64l56.32 286.72L291.84 384h112.64l-56.32-286.72zM870.4 230.39999999999998l153.6 153.6h-102.4c0 256-204.8 460.8-460.8 460.8s-460.8-204.8-460.8-460.8 204.8-460.8 460.8-460.8c102.4 0 204.8 35.84 286.72 102.4l-66.56 81.92a363.52 363.52 0 0 0-225.28-76.8c-199.68 0-358.4 158.72-358.4 358.4s158.72 358.4 358.4 358.4 358.4-158.72 358.4-358.4h-102.4L870.4 230.39999999999998z"  horiz-adv-x="1024" />

    
    <glyph glyph-name="staticdata-a" unicode="&#46625;" d="M665.6 896H204.8C148.48 896 102.4 849.92 102.4 793.6v-819.2c0-56.32 46.08-102.4 102.4-102.4h614.4c56.32 0 102.4 46.08 102.4 102.4V640l-256 256z m-153.6-665.6c56.32 0 102.4 46.08 102.4 102.4h102.4c0-112.64-92.16-204.8-204.8-204.8s-204.8 92.16-204.8 204.8V435.2c0 112.64 92.16 204.8 204.8 204.8s204.8-92.16 204.8-204.8h-102.4c0 56.32-46.08 102.4-102.4 102.4s-102.4-46.08-102.4-102.4v-102.4c0-56.32 46.08-102.4 102.4-102.4z"  horiz-adv-x="1024" />

    
    <glyph glyph-name="task-a" unicode="&#46599;" d="M552.96 107.51999999999998c-10.24-10.24-25.6-15.36-35.84-15.36-15.36 0-25.6 5.12-35.84 15.36l-215.04 215.04c-20.48 20.48-20.48 51.2 0 71.68 20.48 20.48 51.2 20.48 71.68 0l179.2-179.2 455.68 460.8V793.6c0 56.32-46.08 102.4-102.4 102.4H153.6C97.28 896 51.2 849.92 51.2 793.6v-819.2c0-56.32 46.08-102.4 102.4-102.4h716.8c56.32 0 102.4 46.08 102.4 102.4V527.36l-419.84-419.84z"  horiz-adv-x="1024" />

    
    </font>
</defs>
</svg>
